<svg width="40" height="40" viewBox="0 0 40 40" fill="none" xmlns="http://www.w3.org/2000/svg">
<rect width="40" height="40" rx="20" fill="#33AADE"/>
<path fill-rule="evenodd" clip-rule="evenodd" d="M11.4295 19.2262C16.3282 17.0041 19.5894 15.5275 21.227 14.8112C25.8878 12.7791 26.8675 12.4282 27.4974 12.4136C27.6374 12.4136 27.9453 12.4428 28.1552 12.6182C28.3232 12.7644 28.3652 12.9545 28.3932 13.1007C28.4212 13.2469 28.4491 13.5539 28.4212 13.7878C28.1692 16.5655 27.0775 23.305 26.5176 26.4044C26.2797 27.7201 25.8178 28.1587 25.3699 28.2025C24.3902 28.2903 23.6484 27.5301 22.7106 26.8868C21.227 25.8781 20.4012 25.2494 18.9595 24.2553C17.294 23.115 18.3717 22.4864 19.3235 21.463C19.5754 21.1998 23.8723 17.1064 23.9563 16.7409C23.9703 16.6971 23.9703 16.5216 23.8723 16.4339C23.7743 16.3462 23.6344 16.3754 23.5224 16.4047C23.3684 16.4339 21.017 18.0713 16.4402 21.3022C15.7684 21.7846 15.1665 22.0185 14.6206 22.0039C14.0188 21.9893 12.8711 21.653 12.0033 21.3607C10.9536 21.0098 10.1138 20.8197 10.1838 20.2057C10.2258 19.8841 10.6456 19.5625 11.4295 19.2262Z" fill="white"/>
</svg>
