<svg width="40" height="40" viewBox="0 0 40 40" fill="none" xmlns="http://www.w3.org/2000/svg">
<rect width="40" height="40" rx="8" fill="#26D044"/>
<path fill-rule="evenodd" clip-rule="evenodd" d="M27.4804 12.5114C25.4959 10.534 22.8567 9.44457 20.0449 9.44336C14.2512 9.44336 9.53573 14.136 9.5334 19.9038C9.53269 21.7475 10.0166 23.5471 10.9365 25.1337L9.44531 30.5545L15.0176 29.0998C16.5529 29.9332 18.2814 30.3725 20.0407 30.3731H20.045C25.8381 30.3731 30.554 25.6799 30.5564 19.912C30.5574 17.1169 29.465 14.4886 27.4804 12.5114ZM20.045 28.6064H20.0415C18.4738 28.6058 16.9362 28.1866 15.5948 27.3944L15.2758 27.2061L11.9691 28.0692L12.8517 24.8607L12.644 24.5316C11.7695 23.1473 11.3075 21.5473 11.3082 19.9043C11.3101 15.1103 15.2293 11.2102 20.0486 11.2102C22.382 11.211 24.5757 12.1165 26.2252 13.7601C27.8747 15.4036 28.7824 17.5881 28.7815 19.9114C28.7796 24.7058 24.8604 28.6064 20.045 28.6064ZM24.8372 22.0942C24.5746 21.9635 23.2834 21.3311 23.0426 21.2439C22.8019 21.1568 22.6267 21.1131 22.4517 21.3748C22.2766 21.6365 21.7732 22.2252 21.62 22.3997C21.4667 22.574 21.3135 22.596 21.051 22.465C20.7882 22.3343 19.9421 22.0582 18.9388 21.1677C18.1581 20.4746 17.631 19.6187 17.4777 19.3569C17.3245 19.0952 17.4614 18.9538 17.5929 18.8234C17.7111 18.7063 17.8556 18.5181 17.9869 18.3655C18.1183 18.2129 18.162 18.1038 18.2496 17.9294C18.3372 17.7549 18.2934 17.6022 18.2276 17.4715C18.162 17.3405 17.6367 16.0539 17.4179 15.5306C17.2047 15.021 16.9882 15.0899 16.8269 15.0819C16.6739 15.0743 16.4987 15.0726 16.3235 15.0726C16.1484 15.0726 15.864 15.138 15.6232 15.3997C15.3825 15.6614 14.704 16.2938 14.704 17.5804C14.704 18.867 15.645 20.1098 15.7764 20.2844C15.9076 20.4588 17.6284 23.0989 20.2631 24.2312C20.8896 24.5006 21.3789 24.6613 21.7603 24.7819C22.3896 24.9809 22.9621 24.9527 23.4146 24.8855C23.9192 24.8104 24.9685 24.2531 25.1873 23.6425C25.4062 23.0319 25.4062 22.5085 25.3406 22.3995C25.2749 22.2906 25.0999 22.2252 24.8372 22.0942Z" fill="white"/>
</svg>
