<?xml version="1.0"?>
<svg xmlns="http://www.w3.org/2000/svg" xmlns:xlink="http://www.w3.org/1999/xlink" version="1.1" xml:space="preserve">
  <defs>

    <symbol id="loader" width="100%" height="100%" viewBox="22 22 44 44">
      <circle cx="44" cy="44" r="20.2" fill="none" stroke="currentColor" stroke-width="4"></circle>
    </symbol>

    <symbol id="burger" width="100%" height="100%" viewBox="0 0 48 48">
      <path d="M41,14H7a2,2,0,0,1,0-4H41A2,2,0,0,1,41,14Z" fill="currentColor"/>
      <path d="M41,26H7a2,2,0,0,1,0-4H41A2,2,0,0,1,41,26Z" fill="currentColor"/>
      <path d="M41,38H7a2,2,0,0,1,0-4H41A2,2,0,0,1,41,38Z" fill="currentColor"/>
    </symbol>

    <symbol id="close" width="100%" height="100%" viewBox="0 0 16 16">
      <path d="M1 15L15 1M1 1L15 15" stroke="currentColor" stroke-width="2" stroke-linecap="round" stroke-linejoin="round"/>
    </symbol>

    <symbol id="arrow-left" width="100%" height="100%" viewBox="0 0 10 16">
      <path d="M9.59583 13.9789C9.83051 14.2075 9.96089 14.5083 9.94785 14.8211C9.94785 15.1338 9.81747 15.4226 9.56975 15.6511C9.33507 15.8677 9.00913 16 8.67014 16C8.33116 16 8.00521 15.8917 7.7575 15.6752L0.378096 8.86617C0.260756 8.75789 0.169492 8.62556 0.104302 8.4812C0.0391134 8.33684 0 8.18045 0 8.02406C0 7.86767 0.0391134 7.71128 0.104302 7.55489C0.169492 7.41053 0.260756 7.2782 0.378096 7.16992L7.7575 0.360902C7.87484 0.252632 8.01825 0.156391 8.17471 0.0962406C8.3442 0.0360902 8.51369 0 8.68318 0C8.85267 0 9.0352 0.0240601 9.19166 0.0842105C9.34811 0.144361 9.49153 0.240601 9.6219 0.348872C9.73924 0.457143 9.83051 0.601504 9.8957 0.745865C9.97392 0.890226 10 1.04662 10 1.21504C10 1.37143 9.96089 1.52782 9.8957 1.67218C9.83051 1.81654 9.72621 1.94887 9.59583 2.06917L3.14211 8.02406L4.36767 9.14286L9.59583 13.9789Z" fill="currentColor"/>
    </symbol>

    <symbol id="arrow-right" width="100%" height="100%" viewBox="0 0 10 16">
      <path d="M0.404172 13.9789C0.169492 14.2075 0.039114 14.5083 0.0521517 14.8211C0.0521517 15.1338 0.182529 15.4226 0.430248 15.6511C0.664928 15.8677 0.990873 16 1.32986 16C1.66884 16 1.99479 15.8917 2.2425 15.6752L9.6219 8.86617C9.73924 8.75789 9.83051 8.62556 9.8957 8.4812C9.96089 8.33684 10 8.18045 10 8.02406C10 7.86767 9.96089 7.71128 9.8957 7.55489C9.83051 7.41053 9.73924 7.2782 9.6219 7.16992L2.2425 0.360902C2.12516 0.252632 1.98175 0.156391 1.82529 0.0962406C1.6558 0.0360902 1.48631 0 1.31682 0C1.14733 0 0.964798 0.0240601 0.808344 0.0842105C0.651891 0.144361 0.508474 0.240601 0.378097 0.348872C0.260756 0.457143 0.169492 0.601504 0.104302 0.745865C0.0260754 0.890226 0 1.04662 0 1.21504C0 1.37143 0.039114 1.52782 0.104302 1.67218C0.169492 1.81654 0.273794 1.94887 0.404172 2.06917L6.85789 8.02406L5.63233 9.14286L0.404172 13.9789Z" fill="currentColor"/>
    </symbol>

    <symbol id="success" width="100%" height="100%" viewBox="0 0 30 30">
      <path d="M15 26.25C21.2132 26.25 26.25 21.2132 26.25 15C26.25 8.7868 21.2132 3.75 15 3.75C8.7868 3.75 3.75 8.7868 3.75 15C3.75 21.2132 8.7868 26.25 15 26.25Z" fill="currentColor"/>
      <path d="M11.25 15L13.75 17.5L18.75 12.5" fill="var(--color-none)" stroke="white" stroke-width="2" stroke-linecap="round" stroke-linejoin="round"/>
    </symbol>

    <symbol id="dzen" width="100%" height="100%" viewBox="0 0 36 36">
      <path d="M36 18.1929V17.8071C28.0286 17.55 24.39 17.3571 21.4714 14.5286C18.6429 11.61 18.4371 7.97143 18.1929 0H17.8071C17.55 7.97143 17.3571 11.61 14.5286 14.5286C11.61 17.3571 7.97143 17.5629 0 17.8071V18.1929C7.97143 18.45 11.61 18.6429 14.5286 21.4714C17.3571 24.39 17.5629 28.0286 17.8071 36H18.1929C18.45 28.0286 18.6429 24.39 21.4714 21.4714C24.39 18.6429 28.0286 18.4371 36 18.1929Z" fill="currentColor"/>
    </symbol>

    <symbol id="tg" width="100%" height="100%" viewBox="0 0 17 15">
      <path fill-rule="evenodd" clip-rule="evenodd" d="M1.28641 6.30375C5.69529 4.30381 8.63035 2.97491 10.1042 2.33019C14.2989 0.5013 15.1807 0.185521 15.7476 0.172363C15.8735 0.172363 16.1507 0.198678 16.3396 0.356568C16.4908 0.488143 16.5286 0.659191 16.5537 0.790765C16.5789 0.92234 16.6041 1.19865 16.5789 1.40917C16.3522 3.90909 15.3696 9.97468 14.8658 12.7641C14.6516 13.9482 14.2359 14.343 13.8328 14.3824C12.9511 14.4614 12.2834 13.7772 11.4394 13.1983C10.1042 12.2904 9.36097 11.7246 8.06349 10.8299C6.56447 9.80364 7.53443 9.23787 8.39101 8.31684C8.61775 8.08001 12.485 4.39591 12.5606 4.06698C12.5732 4.02751 12.5732 3.86961 12.485 3.79067C12.3968 3.71172 12.2708 3.73804 12.1701 3.76436C12.0315 3.79067 9.91523 5.26431 5.79607 8.17211C5.19142 8.60631 4.64976 8.81683 4.15848 8.80367C3.61682 8.79051 2.58388 8.48789 1.80288 8.22474C0.858116 7.90896 0.102307 7.73791 0.165291 7.1853C0.203082 6.89583 0.580986 6.60637 1.28641 6.30375Z" fill="currentColor"/>
    </symbol>

    <symbol id="case" width="100%" height="100%" viewBox="0 0 92 92">
      <path fill-rule="evenodd" clip-rule="evenodd" d="M65.1666 28.7499V30.6665C65.1666 31.7251 64.3085 32.5832 63.25 32.5832C62.1914 32.5832 61.3333 31.7251 61.3333 30.6665V28.7499H13.4175C12.3584 28.7499 11.5008 29.6069 11.5008 30.6665V49.8332C11.5008 50.8893 12.3527 51.7441 13.4069 51.7498C12.3528 51.7551 11.5 52.6112 11.5 53.6665V55.2559C9.26718 54.4667 7.66749 52.3378 7.66749 49.8332V30.6665C7.66749 27.4892 10.2419 24.9165 13.4175 24.9165H61.3333V19.1665C61.3333 18.1069 60.4757 17.2499 59.4166 17.2499H32.5833C31.5242 17.2499 30.6666 18.1069 30.6666 19.1665C30.6666 20.2251 29.8085 21.0832 28.75 21.0832C27.6914 21.0832 26.8333 20.2251 26.8333 19.1665C26.8333 15.9892 29.4077 13.4165 32.5833 13.4165H59.4166C62.5922 13.4165 65.1666 15.9892 65.1666 19.1665V24.9165H78.5842C81.7597 24.9165 84.3342 27.4892 84.3342 30.6665V49.8332C84.3342 53.0105 81.7597 55.5832 78.5842 55.5832H53.6667V57.5185C53.6667 60.6931 51.0912 63.2685 47.9167 63.2685H44.0833C40.9088 63.2685 38.3333 60.6931 38.3333 57.5185V55.5832H15.3333V53.6665C15.3333 52.6127 14.483 51.7576 13.4311 51.7499H38.3333V49.8519C38.3333 46.6745 40.9078 44.1019 44.0833 44.1019H47.9167C51.0922 44.1019 53.6667 46.6745 53.6667 49.8519V51.7499H78.5842C79.6432 51.7499 80.5008 50.8929 80.5008 49.8332V30.6665C80.5008 29.6069 79.6432 28.7499 78.5842 28.7499H65.1666ZM15.3333 55.5832V72.8331C15.3333 73.8928 16.1909 74.7498 17.25 74.7498H74.75C75.8091 74.7498 76.6667 73.8928 76.6667 72.8331V61.3331C76.6667 60.2746 77.5248 59.4165 78.5833 59.4165C79.6419 59.4165 80.5 60.2746 80.5 61.3331V72.8331C80.5 76.0105 77.9256 78.5831 74.75 78.5831H17.25C14.0744 78.5831 11.5 76.0105 11.5 72.8331V55.2559C12.0997 55.4679 12.7451 55.5832 13.4175 55.5832H15.3333ZM13.4069 51.7498L13.4175 51.7499L13.4167 51.7498L13.4069 51.7498ZM49.8334 55.5832H47.9712C46.9126 55.5832 46.0545 54.7251 46.0545 53.6665C46.0545 52.608 46.9126 51.7499 47.9712 51.7499H49.8334V49.8518C49.8334 48.7921 48.9758 47.9351 47.9167 47.9351H44.0834C43.0243 47.9351 42.1667 48.7921 42.1667 49.8518V57.5185C42.1667 58.5759 43.0259 59.4351 44.0834 59.4351H47.9167C48.9742 59.4351 49.8334 58.5759 49.8334 57.5185V55.5832Z" fill="currentColor"/>
      <path d="M65.1666 28.7499V27.8652H64.282V28.7499H65.1666ZM61.3333 28.7499H62.2179V27.8652H61.3333V28.7499ZM61.3333 24.9165V25.8011H62.2179V24.9165H61.3333ZM65.1666 24.9165H64.282V25.8011H65.1666V24.9165ZM53.6667 55.5832V54.6986H52.782V55.5832H53.6667ZM38.3333 55.5832H39.2179V54.6986H38.3333V55.5832ZM13.4311 51.7499V50.8652L13.4246 52.6344L13.4311 51.7499ZM38.3333 51.7499V52.6345H39.2179V51.7499H38.3333ZM53.6667 51.7499H52.782V52.6345H53.6667V51.7499ZM13.4175 51.7499L13.4153 52.6345L13.4754 50.8671L13.4175 51.7499ZM13.4167 51.7498L13.4746 50.8671L13.4445 50.8651L13.4143 50.8652L13.4167 51.7498ZM49.8334 55.5832H50.718V54.6986H49.8334V55.5832ZM49.8334 51.7499V52.6345H50.718V51.7499H49.8334ZM66.0513 30.6665V28.7499H64.282V30.6665H66.0513ZM63.25 33.4678C64.7971 33.4678 66.0513 32.2136 66.0513 30.6665H64.282C64.282 31.2365 63.82 31.6986 63.25 31.6986V33.4678ZM60.4487 30.6665C60.4487 32.2136 61.7029 33.4678 63.25 33.4678V31.6986C62.68 31.6986 62.2179 31.2365 62.2179 30.6665H60.4487ZM60.4487 28.7499V30.6665H62.2179V28.7499H60.4487ZM61.3333 27.8652H13.4175V29.6345H61.3333V27.8652ZM13.4175 27.8652C11.87 27.8652 10.6162 29.1181 10.6162 30.6665H12.3854C12.3854 30.0956 12.8468 29.6345 13.4175 29.6345V27.8652ZM10.6162 30.6665V49.8332H12.3854V30.6665H10.6162ZM10.6162 49.8332C10.6162 51.3764 11.8616 52.6261 13.4021 52.6344L13.4117 50.8652C12.8437 50.8621 12.3854 50.4022 12.3854 49.8332H10.6162ZM13.4024 50.8652C11.8618 50.8729 10.6154 52.1241 10.6154 53.6665H12.3846C12.3846 53.0983 12.8438 52.6373 13.4113 52.6344L13.4024 50.8652ZM10.6154 53.6665V55.2559H12.3846V53.6665H10.6154ZM11.7948 54.4218C9.90441 53.7537 8.55211 51.9513 8.55211 49.8332H6.78288C6.78288 52.7243 8.62995 55.1797 11.2052 56.0899L11.7948 54.4218ZM8.55211 49.8332V30.6665H6.78288V49.8332H8.55211ZM8.55211 30.6665C8.55211 27.9779 10.7303 25.8011 13.4175 25.8011V24.0319C9.75354 24.0319 6.78288 27.0004 6.78288 30.6665H8.55211ZM13.4175 25.8011H61.3333V24.0319H13.4175V25.8011ZM60.4487 19.1665V24.9165H62.2179V19.1665H60.4487ZM59.4166 18.1345C59.9873 18.1345 60.4487 18.5956 60.4487 19.1665H62.2179C62.2179 17.6181 60.9641 16.3652 59.4166 16.3652V18.1345ZM32.5833 18.1345H59.4166V16.3652H32.5833V18.1345ZM31.5513 19.1665C31.5513 18.5956 32.0126 18.1345 32.5833 18.1345V16.3652C31.0359 16.3652 29.782 17.6181 29.782 19.1665H31.5513ZM28.75 21.9678C30.2971 21.9678 31.5513 20.7136 31.5513 19.1665H29.782C29.782 19.7365 29.32 20.1986 28.75 20.1986V21.9678ZM25.9487 19.1665C25.9487 20.7136 27.2029 21.9678 28.75 21.9678V20.1986C28.18 20.1986 27.7179 19.7365 27.7179 19.1665H25.9487ZM32.5833 12.5319C28.9194 12.5319 25.9487 15.5004 25.9487 19.1665H27.7179C27.7179 16.4779 29.8961 14.3011 32.5833 14.3011V12.5319ZM59.4166 12.5319H32.5833V14.3011H59.4166V12.5319ZM66.0513 19.1665C66.0513 15.5004 63.0806 12.5319 59.4166 12.5319V14.3011C62.1038 14.3011 64.282 16.4779 64.282 19.1665H66.0513ZM66.0513 24.9165V19.1665H64.282V24.9165H66.0513ZM65.1666 25.8011H78.5842V24.0319H65.1666V25.8011ZM78.5842 25.8011C81.2714 25.8011 83.4495 27.9779 83.4495 30.6665H85.2188C85.2188 27.0004 82.2481 24.0319 78.5842 24.0319V25.8011ZM83.4495 30.6665V49.8332H85.2188V30.6665H83.4495ZM83.4495 49.8332C83.4495 52.5218 81.2714 54.6986 78.5842 54.6986V56.4678C82.2481 56.4678 85.2188 53.4993 85.2188 49.8332H83.4495ZM78.5842 54.6986H53.6667V56.4678H78.5842V54.6986ZM52.782 55.5832V57.5185H54.5513V55.5832H52.782ZM52.782 57.5185C52.782 60.2045 50.6026 62.3839 47.9167 62.3839V64.1531C51.5798 64.1531 54.5513 61.1816 54.5513 57.5185H52.782ZM47.9167 62.3839H44.0833V64.1531H47.9167V62.3839ZM44.0833 62.3839C41.3973 62.3839 39.2179 60.2045 39.2179 57.5185H37.4487C37.4487 61.1816 40.4202 64.1531 44.0833 64.1531V62.3839ZM39.2179 57.5185V55.5832H37.4487V57.5185H39.2179ZM38.3333 54.6986H15.3333V56.4678H38.3333V54.6986ZM16.218 55.5832V53.6665H14.4487V55.5832H16.218ZM16.218 53.6665C16.218 52.1264 14.9752 50.8766 13.4377 50.8653L13.4246 52.6344C13.9909 52.6386 14.4487 53.0991 14.4487 53.6665H16.218ZM13.4311 52.6345H38.3333V50.8652H13.4311V52.6345ZM39.2179 51.7499V49.8519H37.4487V51.7499H39.2179ZM39.2179 49.8519C39.2179 47.1632 41.3961 44.9865 44.0833 44.9865V43.2172C40.4194 43.2172 37.4487 46.1858 37.4487 49.8519H39.2179ZM44.0833 44.9865H47.9167V43.2172H44.0833V44.9865ZM47.9167 44.9865C50.6039 44.9865 52.782 47.1632 52.782 49.8519H54.5513C54.5513 46.1858 51.5806 43.2172 47.9167 43.2172V44.9865ZM52.782 49.8519V51.7499H54.5513V49.8519H52.782ZM53.6667 52.6345H78.5842V50.8652H53.6667V52.6345ZM78.5842 52.6345C80.1316 52.6345 81.3854 51.3816 81.3854 49.8332H79.6162C79.6162 50.4041 79.1549 50.8652 78.5842 50.8652V52.6345ZM81.3854 49.8332V30.6665H79.6162V49.8332H81.3854ZM81.3854 30.6665C81.3854 29.1181 80.1316 27.8652 78.5842 27.8652V29.6345C79.1549 29.6345 79.6162 30.0956 79.6162 30.6665H81.3854ZM78.5842 27.8652H65.1666V29.6345H78.5842V27.8652ZM14.4487 55.5832V72.8331H16.218V55.5832H14.4487ZM14.4487 72.8331C14.4487 74.3815 15.7026 75.6344 17.25 75.6344V73.8652C16.6793 73.8652 16.218 73.4041 16.218 72.8331H14.4487ZM17.25 75.6344H74.75V73.8652H17.25V75.6344ZM74.75 75.6344C76.2975 75.6344 77.5513 74.3815 77.5513 72.8331H75.7821C75.7821 73.4041 75.3207 73.8652 74.75 73.8652V75.6344ZM77.5513 72.8331V61.3331H75.7821V72.8331H77.5513ZM77.5513 61.3331C77.5513 60.7631 78.0134 60.3011 78.5833 60.3011V58.5319C77.0362 58.5319 75.7821 59.786 75.7821 61.3331H77.5513ZM78.5833 60.3011C79.1533 60.3011 79.6154 60.7632 79.6154 61.3331H81.3846C81.3846 59.786 80.1304 58.5319 78.5833 58.5319V60.3011ZM79.6154 61.3331V72.8331H81.3846V61.3331H79.6154ZM79.6154 72.8331C79.6154 75.5218 77.4372 77.6985 74.75 77.6985V79.4678C78.414 79.4678 81.3846 76.4992 81.3846 72.8331H79.6154ZM74.75 77.6985H17.25V79.4678H74.75V77.6985ZM17.25 77.6985C14.5628 77.6985 12.3846 75.5218 12.3846 72.8331H10.6154C10.6154 76.4992 13.5861 79.4678 17.25 79.4678V77.6985ZM12.3846 72.8331V55.2559H10.6154V72.8331H12.3846ZM11.2052 56.0899C11.8983 56.3349 12.6434 56.4678 13.4175 56.4678V54.6986C12.8469 54.6986 12.3012 54.6008 11.7948 54.4218L11.2052 56.0899ZM13.4175 56.4678H15.3333V54.6986H13.4175V56.4678ZM13.4197 50.8652L13.4091 50.8652L13.4046 52.6344L13.4153 52.6345L13.4197 50.8652ZM13.3588 52.6325L13.3596 52.6326L13.4754 50.8671L13.4746 50.8671L13.3588 52.6325ZM13.4093 52.6344L13.4191 52.6344L13.4143 50.8652L13.4045 50.8652L13.4093 52.6344ZM47.9712 56.4678H49.8334V54.6986H47.9712V56.4678ZM45.1699 53.6665C45.1699 55.2136 46.4241 56.4678 47.9712 56.4678V54.6986C47.4012 54.6986 46.9391 54.2365 46.9391 53.6665H45.1699ZM47.9712 50.8652C46.4241 50.8652 45.1699 52.1194 45.1699 53.6665H46.9391C46.9391 53.0965 47.4012 52.6345 47.9712 52.6345V50.8652ZM49.8334 50.8652H47.9712V52.6345H49.8334V50.8652ZM48.9487 49.8518V51.7499H50.718V49.8518H48.9487ZM47.9167 48.8198C48.4874 48.8198 48.9487 49.2809 48.9487 49.8518H50.718C50.718 48.3034 49.4642 47.0505 47.9167 47.0505V48.8198ZM44.0834 48.8198H47.9167V47.0505H44.0834V48.8198ZM43.0513 49.8518C43.0513 49.2809 43.5127 48.8198 44.0834 48.8198V47.0505C42.5359 47.0505 41.2821 48.3034 41.2821 49.8518H43.0513ZM43.0513 57.5185V49.8518H41.2821V57.5185H43.0513ZM44.0834 58.5505C43.5145 58.5505 43.0513 58.0874 43.0513 57.5185H41.2821C41.2821 59.0645 42.5374 60.3198 44.0834 60.3198V58.5505ZM47.9167 58.5505H44.0834V60.3198H47.9167V58.5505ZM48.9487 57.5185C48.9487 58.0874 48.4856 58.5505 47.9167 58.5505V60.3198C49.4627 60.3198 50.718 59.0645 50.718 57.5185H48.9487ZM48.9487 55.5832V57.5185H50.718V55.5832H48.9487Z" fill="currentColor"/>
    </symbol>

    <symbol id="user" width="100%" height="100%" viewBox="0 0 92 92">
      <path fill-rule="evenodd" clip-rule="evenodd" d="M61.7742 42.7388C57.9119 47.0907 52.2761 49.8329 46 49.8329C34.3564 49.8329 24.9167 40.3945 24.9167 28.7495C24.9167 17.1072 34.3576 7.6662 46 7.6662C57.6424 7.6662 67.0833 17.1072 67.0833 28.7495C67.0833 32.7381 65.9759 36.4677 64.0519 39.6479C71.6888 44.5957 76.6655 52.6076 76.6655 61.6911V78.5424C76.6655 81.7208 74.0939 84.2924 70.9155 84.2924H21.0822C17.9066 84.2924 15.3322 81.7198 15.3322 78.5424V61.6911C15.3322 54.77 18.2464 48.2585 23.3853 43.2725C24.1451 42.5354 25.3585 42.5537 26.0956 43.3134C26.8327 44.0731 26.8144 45.2866 26.0547 46.0237C21.6404 50.3066 19.1655 55.8365 19.1655 61.6911V78.5424C19.1655 79.6021 20.0231 80.4591 21.0822 80.4591H70.9155C71.9768 80.4591 72.8322 79.6037 72.8322 78.5424V61.6911C72.8322 53.9252 68.4848 47.0083 61.7742 42.7388ZM58.2864 40.8578C55.158 44.0319 50.8087 45.9995 46 45.9995C36.4733 45.9995 28.75 38.2772 28.75 28.7495C28.75 19.2242 36.4747 11.4995 46 11.4995C55.5253 11.4995 63.25 19.2242 63.25 28.7495C63.25 32.0535 62.3212 35.1404 60.7105 37.7634C56.3385 35.636 51.3231 34.4284 45.9988 34.4284C44.9403 34.4284 44.0822 35.2865 44.0822 36.3451C44.0822 37.4036 44.9403 38.2617 45.9988 38.2617C50.4332 38.2617 54.6092 39.1997 58.2864 40.8578Z" fill="currentColor"/>
      <path d="M61.7742 42.7388L62.311 41.895L61.592 41.4376L61.0263 42.075L61.7742 42.7388ZM64.0519 39.6479L63.1963 39.1303L62.6943 39.9599L63.5081 40.4872L64.0519 39.6479ZM23.3853 43.2725L24.0817 43.9902L24.0817 43.9902L23.3853 43.2725ZM26.0956 43.3134L26.8133 42.6171H26.8133L26.0956 43.3134ZM26.0547 46.0237L26.751 46.7414L26.0547 46.0237ZM58.2864 40.8578L58.9986 41.5598L60.007 40.5367L58.6975 39.9462L58.2864 40.8578ZM60.7105 37.7634L60.273 38.6626L61.0883 39.0593L61.5627 38.2867L60.7105 37.7634ZM46 50.8329C52.5739 50.8329 58.4781 47.9592 62.5221 43.4025L61.0263 42.075C57.3457 46.2221 51.9783 48.8329 46 48.8329V50.8329ZM23.9167 28.7495C23.9167 40.9468 33.8041 50.8329 46 50.8329V48.8329C34.9086 48.8329 25.9167 39.8422 25.9167 28.7495H23.9167ZM46 6.6662C33.8053 6.6662 23.9167 16.5549 23.9167 28.7495H25.9167C25.9167 17.6594 34.9099 8.6662 46 8.6662V6.6662ZM68.0833 28.7495C68.0833 16.5549 58.1947 6.6662 46 6.6662V8.6662C57.0901 8.6662 66.0833 17.6594 66.0833 28.7495H68.0833ZM64.9075 40.1656C66.9233 36.8336 68.0833 32.9256 68.0833 28.7495H66.0833C66.0833 32.5505 65.0285 36.1018 63.1963 39.1303L64.9075 40.1656ZM77.6655 61.6911C77.6655 52.2221 72.4757 43.9139 64.5956 38.8087L63.5081 40.4872C70.9019 45.2774 75.6655 52.9931 75.6655 61.6911H77.6655ZM77.6655 78.5424V61.6911H75.6655V78.5424H77.6655ZM70.9155 85.2924C74.6462 85.2924 77.6655 82.2731 77.6655 78.5424H75.6655C75.6655 81.1685 73.5416 83.2924 70.9155 83.2924V85.2924ZM21.0822 85.2924H70.9155V83.2924H21.0822V85.2924ZM14.3322 78.5424C14.3322 82.2722 17.3545 85.2924 21.0822 85.2924V83.2924C18.4587 83.2924 16.3322 81.1673 16.3322 78.5424H14.3322ZM14.3322 61.6911V78.5424H16.3322V61.6911H14.3322ZM22.689 42.5548C17.3709 47.7146 14.3322 54.4793 14.3322 61.6911H16.3322C16.3322 55.0606 19.1218 48.8025 24.0817 43.9902L22.689 42.5548ZM26.8133 42.6171C25.6916 41.461 23.8451 41.4331 22.689 42.5548L24.0817 43.9902C24.445 43.6376 25.0254 43.6464 25.3779 44.0098L26.8133 42.6171ZM26.751 46.7414C27.9071 45.6197 27.935 43.7732 26.8133 42.6171L25.3779 44.0098C25.7304 44.3731 25.7217 44.9534 25.3583 45.306L26.751 46.7414ZM20.1655 61.6911C20.1655 56.1293 22.5142 50.8521 26.751 46.7414L25.3583 45.306C20.7666 49.7611 18.1655 55.5437 18.1655 61.6911H20.1655ZM20.1655 78.5424V61.6911H18.1655V78.5424H20.1655ZM21.0822 79.4591C20.5752 79.4591 20.1655 79.0496 20.1655 78.5424H18.1655C18.1655 80.1546 19.471 81.4591 21.0822 81.4591V79.4591ZM70.9155 79.4591H21.0822V81.4591H70.9155V79.4591ZM71.8322 78.5424C71.8322 79.0514 71.4245 79.4591 70.9155 79.4591V81.4591C72.5291 81.4591 73.8322 80.156 73.8322 78.5424H71.8322ZM71.8322 61.6911V78.5424H73.8322V61.6911H71.8322ZM61.2374 43.5825C67.7059 47.698 71.8322 54.3188 71.8322 61.6911H73.8322C73.8322 53.5317 69.2638 46.3186 62.311 41.895L61.2374 43.5825ZM57.5742 40.1558C54.626 43.1471 50.5302 44.9995 46 44.9995V46.9995C51.0872 46.9995 55.69 44.9167 58.9986 41.5598L57.5742 40.1558ZM46 44.9995C37.0256 44.9995 29.75 37.7249 29.75 28.7495H27.75C27.75 38.8295 35.9211 46.9995 46 46.9995V44.9995ZM29.75 28.7495C29.75 19.7765 37.027 12.4995 46 12.4995V10.4995C35.9224 10.4995 27.75 18.6719 27.75 28.7495H29.75ZM46 12.4995C54.973 12.4995 62.25 19.7765 62.25 28.7495H64.25C64.25 18.6719 56.0776 10.4995 46 10.4995V12.4995ZM62.25 28.7495C62.25 31.8636 61.3752 34.7701 59.8584 37.2402L61.5627 38.2867C63.2673 35.5107 64.25 32.2434 64.25 28.7495H62.25ZM61.1481 36.8642C56.6396 34.6704 51.4746 33.4284 45.9988 33.4284V35.4284C51.1717 35.4284 56.0374 36.6016 60.273 38.6626L61.1481 36.8642ZM45.9988 33.4284C44.388 33.4284 43.0822 34.7342 43.0822 36.3451H45.0822C45.0822 35.8388 45.4926 35.4284 45.9988 35.4284V33.4284ZM43.0822 36.3451C43.0822 37.9559 44.388 39.2617 45.9988 39.2617V37.2617C45.4926 37.2617 45.0822 36.8513 45.0822 36.3451H43.0822ZM45.9988 39.2617C50.292 39.2617 54.3278 40.1698 57.8754 41.7694L58.6975 39.9462C54.8906 38.2296 50.5745 37.2617 45.9988 37.2617V39.2617Z" fill="currentColor"/>
    </symbol>

    <symbol id="setting" width="100%" height="100%" viewBox="0 0 92 92">
      <path fill-rule="evenodd" clip-rule="evenodd" d="M42.9285 32.0873L25.3955 14.5579C24.0828 13.2186 24.4877 10.9285 26.2383 10.1801C32.079 7.65803 38.5048 6.98433 44.9727 8.38767C56.9151 10.9805 66.3738 20.745 68.5028 32.7303C69.9046 40.6285 68.2736 48.1095 64.5802 54.2029L83.7719 73.3947C84.5205 74.1432 84.5205 75.3568 83.7719 76.1053C83.0234 76.8538 81.8099 76.8538 81.0614 76.1053L62.3547 57.3986C55.6754 65.8014 44.6811 70.6225 32.7318 68.5019C20.7458 66.3775 10.9823 56.9175 8.38896 44.9727C6.98143 38.5036 7.65523 32.0769 10.1784 26.2437C10.9316 24.4817 13.2351 24.0781 14.5686 25.4117L32.0741 42.9136L40.6411 40.6643L42.9285 32.0873ZM64.7285 33.4004C65.8955 39.9759 64.6696 46.217 61.7759 51.3987L58.8553 48.478C58.1068 47.7295 56.8932 47.7295 56.1447 48.478C55.3962 49.2266 55.3962 50.4401 56.1447 51.1886L59.6236 54.6675C53.8067 62.2383 44.0418 66.6158 33.4012 64.7274C22.9513 62.8753 14.3994 54.5892 12.1348 44.1586C11.0258 39.0611 11.387 34.0169 13.074 29.3379L29.8367 46.097C30.5969 46.8707 31.7716 47.101 32.7835 46.6693L42.3849 44.1487C43.2811 43.7888 43.7899 43.28 44.0606 42.6439L46.7603 32.5246C47.0989 31.7686 46.8715 30.609 46.0979 29.8354L29.3347 13.0758C34.0191 11.3895 39.0635 11.028 44.1597 12.1337C54.587 14.3976 62.8723 22.9508 64.7285 33.4004ZM73.5289 83.9061L58.0614 68.4386C57.3129 67.6901 57.3129 66.4766 58.0614 65.728C58.8099 64.9795 60.0234 64.9795 60.772 65.728L76.2395 81.1955C76.988 81.9441 76.988 83.1576 76.2395 83.9061C75.491 84.6546 74.2774 84.6546 73.5289 83.9061Z" fill="currentColor"/>
      <path d="M25.3955 14.5579L24.6814 15.258L24.6885 15.2651L25.3955 14.5579ZM42.9285 32.0873L43.8947 32.3449L44.0433 31.7878L43.6355 31.3801L42.9285 32.0873ZM26.2383 10.1801L26.6314 11.0997L26.6347 11.0982L26.2383 10.1801ZM44.9727 8.38767L45.1849 7.41044L45.1847 7.41041L44.9727 8.38767ZM68.5028 32.7303L69.4874 32.5556L69.4874 32.5554L68.5028 32.7303ZM64.5802 54.2029L63.725 53.6846L63.3184 54.3554L63.8731 54.9101L64.5802 54.2029ZM83.7719 73.3947L83.0648 74.1018H83.0648L83.7719 73.3947ZM83.7719 76.1053L83.0648 75.3982H83.0648L83.7719 76.1053ZM81.0614 76.1053L81.7685 75.3982L81.0614 76.1053ZM62.3547 57.3986L63.0618 56.6915L62.2693 55.899L61.5719 56.7763L62.3547 57.3986ZM32.7318 68.5019L32.9066 67.5172L32.9063 67.5172L32.7318 68.5019ZM8.38896 44.9727L9.36619 44.7606L9.36609 44.7601L8.38896 44.9727ZM10.1784 26.2437L11.0962 26.6407L11.0979 26.6368L10.1784 26.2437ZM14.5686 25.4117L13.8615 26.1188L13.8616 26.1188L14.5686 25.4117ZM32.0741 42.9136L31.3671 43.6207L31.773 44.0265L32.3281 43.8808L32.0741 42.9136ZM40.6411 40.6643L40.895 41.6315L41.4575 41.4839L41.6073 40.922L40.6411 40.6643ZM61.7759 51.3987L61.0688 52.1058L62.0041 53.0411L62.649 51.8863L61.7759 51.3987ZM64.7285 33.4004L65.7131 33.2257L65.7131 33.2255L64.7285 33.4004ZM59.6236 54.6675L60.4166 55.2768L60.9512 54.5809L60.3307 53.9604L59.6236 54.6675ZM33.4012 64.7274L33.576 63.7427L33.5758 63.7427L33.4012 64.7274ZM12.1348 44.1586L13.1121 43.9464L13.112 43.946L12.1348 44.1586ZM13.074 29.3379L13.781 28.6307L12.6674 27.5173L12.1333 28.9987L13.074 29.3379ZM29.8367 46.097L30.55 45.3961L30.5437 45.3898L29.8367 46.097ZM32.7835 46.6693L32.5296 45.7021L32.4586 45.7207L32.391 45.7495L32.7835 46.6693ZM42.3849 44.1487L42.6388 45.116L42.6994 45.1001L42.7576 45.0767L42.3849 44.1487ZM44.0606 42.6439L44.9808 43.0354L45.0085 42.9702L45.0268 42.9016L44.0606 42.6439ZM46.7603 32.5246L45.8476 32.1159L45.8148 32.1892L45.7941 32.2668L46.7603 32.5246ZM46.0979 29.8354L46.805 29.1283L46.805 29.1282L46.0979 29.8354ZM29.3347 13.0758L28.996 12.1349L27.5132 12.6687L28.6277 13.783L29.3347 13.0758ZM44.1597 12.1337L44.3718 11.1565L44.3717 11.1565L44.1597 12.1337ZM73.5289 83.9061L74.236 83.199V83.199L73.5289 83.9061ZM60.772 65.728L60.0648 66.4352L60.772 65.728ZM76.2395 81.1955L76.9466 80.4884V80.4884L76.2395 81.1955ZM76.2395 83.9061L75.5323 83.199V83.199L76.2395 83.9061ZM24.6885 15.2651L42.2214 32.7944L43.6355 31.3801L26.1026 13.8507L24.6885 15.2651ZM25.8452 9.26063C23.4244 10.2955 22.8939 13.4343 24.6814 15.2579L26.1097 13.8579C25.2716 13.0029 25.551 11.5615 26.6314 11.0996L25.8452 9.26063ZM45.1847 7.41041C38.5118 5.96258 31.8733 6.6576 25.8419 9.26208L26.6347 11.0982C32.2847 8.65846 38.4977 8.00607 44.7607 9.36494L45.1847 7.41041ZM69.4874 32.5554C67.2868 20.1671 57.52 10.0885 45.1849 7.41044L44.7605 9.36491C56.3102 11.8724 65.4608 21.3229 67.5182 32.9052L69.4874 32.5554ZM65.4354 54.7213C69.251 48.4261 70.9328 40.6997 69.4874 32.5556L67.5182 32.9051C68.8763 40.5574 67.2962 47.7928 63.725 53.6846L65.4354 54.7213ZM84.4791 72.6876L65.2873 53.4958L63.8731 54.9101L83.0648 74.1018L84.4791 72.6876ZM84.479 76.8124C85.6181 75.6734 85.6181 73.8266 84.479 72.6876L83.0648 74.1018C83.4228 74.4598 83.4228 75.0402 83.0648 75.3982L84.479 76.8124ZM80.3543 76.8124C81.4933 77.9514 83.34 77.9514 84.4791 76.8124L83.0648 75.3982C82.7069 75.7562 82.1265 75.7562 81.7685 75.3982L80.3543 76.8124ZM61.6476 58.1057L80.3543 76.8124L81.7685 75.3982L63.0618 56.6915L61.6476 58.1057ZM32.5571 69.4865C44.8858 71.6745 56.2413 66.6965 63.1375 58.0208L61.5719 56.7763C55.1095 64.9063 44.4763 69.5706 32.9066 67.5172L32.5571 69.4865ZM7.41172 45.1849C10.0902 57.5222 20.1678 67.2907 32.5573 69.4865L32.9063 67.5172C21.3238 65.4644 11.8743 56.3128 9.36619 44.7606L7.41172 45.1849ZM9.2606 25.8467C6.6547 31.8711 5.95964 38.511 7.41182 45.1853L9.36609 44.7601C8.00322 38.4963 8.65576 32.2827 11.0962 26.6407L9.2606 25.8467ZM15.2757 24.7046C13.4555 22.8843 10.298 23.4199 9.25891 25.8506L11.0979 26.6368C11.5653 25.5435 13.0147 25.272 13.8615 26.1188L15.2757 24.7046ZM32.7812 42.2064L15.2756 24.7045L13.8616 26.1188L31.3671 43.6207L32.7812 42.2064ZM40.3872 39.6971L31.8202 41.9463L32.3281 43.8808L40.895 41.6315L40.3872 39.6971ZM41.9622 31.8296L39.6749 40.4067L41.6073 40.922L43.8947 32.3449L41.9622 31.8296ZM62.649 51.8863C65.6524 46.5081 66.9214 40.0336 65.7131 33.2257L63.7439 33.5752C64.8696 39.9183 63.6868 45.926 60.9028 50.9111L62.649 51.8863ZM58.1482 49.1852L61.0688 52.1058L62.483 50.6916L59.5624 47.7709L58.1482 49.1852ZM56.8518 49.1852C57.2098 48.8272 57.7902 48.8272 58.1482 49.1852L59.5624 47.7709C58.4234 46.6319 56.5766 46.6319 55.4376 47.7709L56.8518 49.1852ZM56.8518 50.4815C56.4938 50.1235 56.4938 49.5431 56.8518 49.1852L55.4376 47.7709C54.2986 48.91 54.2986 50.7567 55.4376 51.8957L56.8518 50.4815ZM60.3307 53.9604L56.8518 50.4815L55.4376 51.8957L58.9165 55.3746L60.3307 53.9604ZM33.2265 65.712C44.2519 67.6687 54.3834 63.1291 60.4166 55.2768L58.8306 54.0582C53.23 61.3476 43.8317 65.5629 33.576 63.7427L33.2265 65.712ZM11.1576 44.3707C13.5073 55.1936 22.3729 63.7884 33.2267 65.712L33.5758 63.7427C23.5297 61.9622 15.2915 53.9849 13.1121 43.9464L11.1576 44.3707ZM12.1333 28.9987C10.3822 33.8553 10.0088 39.0908 11.1577 44.3712L13.112 43.946C12.0427 39.0315 12.3917 34.1786 14.0147 29.677L12.1333 28.9987ZM30.5437 45.3898L13.781 28.6307L12.3669 30.045L29.1296 46.8042L30.5437 45.3898ZM32.391 45.7495C31.7531 46.0217 31.0183 45.8727 30.5499 45.3961L29.1234 46.7979C30.1756 47.8686 31.7902 48.1803 33.1759 47.5891L32.391 45.7495ZM42.131 43.1815L32.5296 45.7021L33.0374 47.6365L42.6388 45.116L42.131 43.1815ZM43.1405 42.2523C42.9903 42.6051 42.7042 42.9428 42.0122 43.2208L42.7576 45.0767C43.858 44.6347 44.5895 43.955 44.9808 43.0354L43.1405 42.2523ZM45.7941 32.2668L43.0944 42.3861L45.0268 42.9016L47.7265 32.7824L45.7941 32.2668ZM45.3908 30.5425C45.9243 31.076 45.9879 31.8027 45.8476 32.1159L47.673 32.9333C48.2099 31.7344 47.8188 30.142 46.805 29.1283L45.3908 30.5425ZM28.6277 13.783L45.3909 30.5426L46.805 29.1282L30.0418 12.3686L28.6277 13.783ZM44.3717 11.1565C39.0927 10.0111 33.8575 10.3848 28.996 12.1349L29.6735 14.0167C34.1808 12.3941 39.0342 12.0449 43.9476 13.111L44.3717 11.1565ZM65.7131 33.2255C63.7853 22.3726 55.1915 13.5055 44.3718 11.1565L43.9475 13.111C53.9824 15.2896 61.9594 23.5291 63.7439 33.5753L65.7131 33.2255ZM57.3543 69.1457L72.8218 84.6132L74.236 83.199L58.7685 67.7315L57.3543 69.1457ZM57.3543 65.0209C56.2152 66.16 56.2152 68.0067 57.3543 69.1457L58.7685 67.7315C58.4105 67.3735 58.4105 66.7931 58.7685 66.4352L57.3543 65.0209ZM61.4791 65.0209C60.34 63.8819 58.4933 63.8819 57.3543 65.0209L58.7685 66.4352C59.1265 66.0772 59.7069 66.0772 60.0648 66.4352L61.4791 65.0209ZM76.9466 80.4884L61.4791 65.0209L60.0648 66.4352L75.5323 81.9026L76.9466 80.4884ZM76.9466 84.6132C78.0856 83.4742 78.0856 81.6275 76.9466 80.4884L75.5323 81.9026C75.8903 82.2606 75.8903 82.841 75.5323 83.199L76.9466 84.6132ZM72.8218 84.6132C73.9608 85.7523 75.8075 85.7523 76.9466 84.6132L75.5323 83.199C75.1744 83.557 74.594 83.557 74.236 83.199L72.8218 84.6132Z" fill="currentColor"/>
    </symbol>

    <symbol id="repeat" width="100%" height="100%" viewBox="0 0 92 92">
      <path fill-rule="evenodd" clip-rule="evenodd" d="M62.4801 56.369C64.7628 59.7155 69.6968 59.7155 71.9795 56.369L83.3261 39.7362C85.9307 35.9185 83.1984 30.7479 78.5765 30.7479L68.599 30.7479C66.93 18.6656 61.2779 10.9407 52.9252 8.46352C44.0275 5.82471 33.5872 9.89953 27.1773 18.3032C26.5354 19.1449 26.6972 20.3476 27.5389 20.9896C28.3806 21.6315 29.5833 21.4697 30.2253 20.628C35.7175 13.4273 44.5529 9.97889 51.8353 12.1386C58.5049 14.1166 63.1993 20.4045 64.735 30.7479L55.8831 30.7479C51.2642 30.7479 48.5294 35.9192 51.1335 39.7363L62.4801 56.369ZM78.5766 34.5811L68.9841 34.5811C69.0691 35.8884 69.1123 37.2391 69.1123 38.6323C69.1123 39.6908 68.2542 40.549 67.1956 40.549C66.1371 40.549 65.279 39.6908 65.279 38.6323C65.279 37.2291 65.2337 35.8785 65.1449 34.5811L55.8832 34.5811C54.3437 34.5811 53.4325 36.3039 54.3002 37.5758L65.6469 54.2087C66.4079 55.3242 68.0519 55.3242 68.8129 54.2087L80.1596 37.5757C81.0281 36.3026 80.1184 34.5811 78.5766 34.5811ZM29.8901 35.8712C27.6074 32.5248 22.6734 32.5248 20.3907 35.8712L9.04405 52.504C6.43955 56.3217 9.17169 61.4961 13.7937 61.4961L23.772 61.4961C25.4417 73.5763 31.0935 81.3 39.4453 83.7769C48.3431 86.4157 58.7834 82.3409 65.1932 73.9372C65.8352 73.0955 65.6733 71.8928 64.8317 71.2508C63.99 70.6089 62.7873 70.7708 62.1453 71.6124C56.6531 78.8131 47.8176 82.2615 40.5353 80.1018C33.8665 78.124 29.1724 71.8374 27.6362 61.4961L36.4871 61.4961C41.1091 61.4961 43.8412 56.3217 41.2367 52.504L29.8901 35.8712ZM27.226 57.663L36.4871 57.663C38.0283 57.663 38.939 55.9381 38.0701 54.6644L26.7234 38.0315C25.9624 36.916 24.3184 36.916 23.5574 38.0315L12.2107 54.6645C11.3418 55.9381 12.2525 57.663 13.7937 57.663L23.3867 57.663C23.3015 56.3545 23.2583 55.0026 23.2583 53.6081C23.2583 52.5496 24.1164 51.6915 25.1749 51.6915C26.2335 51.6915 27.0916 52.5496 27.0916 53.6081C27.0916 55.0127 27.137 56.3644 27.226 57.663Z" fill="currentColor"/>
      <path d="M71.9795 56.369L71.2487 55.8705L71.2487 55.8706L71.9795 56.369ZM62.4801 56.369L63.2109 55.8706L63.2109 55.8705L62.4801 56.369ZM83.3261 39.7362L82.5954 39.2377L82.5954 39.2377L83.3261 39.7362ZM68.599 30.7479L67.7227 30.869L67.8282 31.6325L68.599 31.6325L68.599 30.7479ZM52.9252 8.46352L52.6737 9.31162L52.9252 8.46352ZM27.1773 18.3032L27.8807 18.8397L27.8807 18.8397L27.1773 18.3032ZM27.5389 20.9896L28.0754 20.2862L28.0754 20.2862L27.5389 20.9896ZM30.2253 20.628L29.5219 20.0915L29.5219 20.0915L30.2253 20.628ZM51.8353 12.1386L52.0868 11.2905L51.8353 12.1386ZM64.735 30.7479L64.735 31.6325L65.7606 31.6325L65.61 30.618L64.735 30.7479ZM51.1335 39.7363L51.8643 39.2377L51.8642 39.2377L51.1335 39.7363ZM68.9841 34.5811L68.9841 33.6965L68.0401 33.6965L68.1014 34.6385L68.9841 34.5811ZM65.1449 34.5811L66.0274 34.5207L65.971 33.6965L65.1449 33.6965L65.1449 34.5811ZM54.3002 37.5758L55.031 37.0773L55.031 37.0772L54.3002 37.5758ZM65.6469 54.2087L66.3777 53.7102L66.3777 53.7102L65.6469 54.2087ZM68.8129 54.2087L68.0821 53.7102L68.0821 53.7102L68.8129 54.2087ZM80.1596 37.5757L79.4288 37.0772L79.4288 37.0772L80.1596 37.5757ZM20.3907 35.8712L21.1215 36.3697L21.1215 36.3697L20.3907 35.8712ZM29.8901 35.8712L29.1593 36.3697L29.1593 36.3697L29.8901 35.8712ZM9.04405 52.504L9.7748 53.0026L9.77482 53.0025L9.04405 52.504ZM23.772 61.4961L24.6483 61.375L24.5428 60.6115L23.772 60.6115L23.772 61.4961ZM39.4453 83.7769L39.6969 82.9288L39.4453 83.7769ZM65.1932 73.9372L64.4899 73.4007L64.4899 73.4007L65.1932 73.9372ZM64.8317 71.2508L64.2952 71.9542L64.2952 71.9542L64.8317 71.2508ZM62.1453 71.6124L62.8487 72.1489L62.1453 71.6124ZM40.5353 80.1018L40.2837 80.9499L40.5353 80.1018ZM27.6362 61.4961L27.6362 60.6115L26.6104 60.6115L26.7611 61.6261L27.6362 61.4961ZM41.2367 52.504L40.5059 53.0025L40.5059 53.0025L41.2367 52.504ZM36.4871 57.663L36.4871 58.5476L36.4871 57.663ZM27.226 57.663L26.3434 57.7234L26.3999 58.5476L27.226 58.5476L27.226 57.663ZM38.0701 54.6644L37.3393 55.1629L37.3393 55.163L38.0701 54.6644ZM26.7234 38.0315L25.9926 38.53L25.9926 38.53L26.7234 38.0315ZM23.5574 38.0315L24.2882 38.53L24.2882 38.53L23.5574 38.0315ZM12.2107 54.6645L12.9414 55.163L12.9415 55.163L12.2107 54.6645ZM23.3867 57.663L23.3867 58.5476L24.3308 58.5476L24.2694 57.6055L23.3867 57.663ZM71.2487 55.8706C69.3172 58.7021 65.1424 58.7021 63.2109 55.8706L61.7493 56.8675C64.3832 60.7288 70.0764 60.7288 72.7102 56.8675L71.2487 55.8706ZM82.5954 39.2377L71.2487 55.8705L72.7102 56.8676L84.0569 40.2347L82.5954 39.2377ZM78.5765 31.6325C82.4878 31.6325 84.7992 36.0073 82.5954 39.2377L84.0569 40.2348C87.0622 35.8297 83.909 29.8633 78.5765 29.8633L78.5765 31.6325ZM68.599 31.6325L78.5765 31.6325L78.5765 29.8633L68.599 29.8633L68.599 31.6325ZM52.6737 9.31162C60.5786 11.656 66.0823 18.9938 67.7227 30.869L69.4753 30.6269C67.7777 18.3375 61.9771 10.2253 53.1768 7.61541L52.6737 9.31162ZM27.8807 18.8397C34.1143 10.667 44.1964 6.79748 52.6737 9.31162L53.1768 7.61541C43.8587 4.85193 33.06 9.13201 26.474 17.7667L27.8807 18.8397ZM28.0754 20.2862C27.6222 19.9405 27.535 19.2929 27.8807 18.8397L26.474 17.7667C25.5357 18.9969 25.7723 20.7547 27.0024 21.6929L28.0754 20.2862ZM29.5219 20.0915C29.1762 20.5447 28.5286 20.6319 28.0754 20.2862L27.0024 21.6929C28.2325 22.6312 29.9904 22.3946 30.9286 21.1645L29.5219 20.0915ZM52.0868 11.2905C44.3758 9.00365 35.1842 12.6679 29.5219 20.0915L30.9286 21.1645C36.2509 14.1867 44.7301 10.9541 51.5838 12.9867L52.0868 11.2905ZM65.61 30.618C64.0459 20.0829 59.2093 13.4028 52.0868 11.2905L51.5838 12.9867C57.8004 14.8304 62.3527 20.7261 63.8599 30.8778L65.61 30.618ZM55.8831 31.6325L64.735 31.6325L64.735 29.8633L55.8831 29.8633L55.8831 31.6325ZM51.8642 39.2377C49.661 36.0083 51.9745 31.6325 55.8831 31.6325L55.8831 29.8633C50.5538 29.8633 47.3978 35.8302 50.4027 40.2348L51.8642 39.2377ZM63.2109 55.8705L51.8643 39.2377L50.4027 40.2348L61.7494 56.8676L63.2109 55.8705ZM68.9841 35.4657L78.5766 35.4657L78.5766 33.6965L68.9841 33.6965L68.9841 35.4657ZM69.9969 38.6323C69.9969 37.2209 69.9532 35.851 69.8669 34.5237L68.1014 34.6385C68.1851 35.9258 68.2277 37.2573 68.2277 38.6323L69.9969 38.6323ZM67.1956 41.4336C68.7427 41.4336 69.9969 40.1794 69.9969 38.6323L68.2277 38.6323C68.2277 39.2023 67.7656 39.6643 67.1956 39.6643L67.1956 41.4336ZM64.3944 38.6323C64.3944 40.1794 65.6485 41.4336 67.1956 41.4336L67.1956 39.6643C66.6256 39.6643 66.1636 39.2023 66.1636 38.6323L64.3944 38.6323ZM64.2623 34.6415C64.3497 35.9177 64.3944 37.248 64.3944 38.6323L66.1636 38.6323C66.1636 37.2101 66.1177 35.8393 66.0274 34.5207L64.2623 34.6415ZM55.8832 35.4657L65.1449 35.4657L65.1449 33.6965L55.8832 33.6965L55.8832 35.4657ZM55.031 37.0772C54.5643 36.3932 55.0538 35.4657 55.8832 35.4657L55.8832 33.6965C53.6335 33.6965 52.3008 36.2147 53.5695 38.0743L55.031 37.0772ZM66.3777 53.7102L55.031 37.0773L53.5695 38.0743L64.9162 54.7072L66.3777 53.7102ZM68.0821 53.7102C67.6723 54.3109 66.7875 54.3109 66.3777 53.7102L64.9161 54.7072C66.0283 56.3375 68.4315 56.3375 69.5436 54.7072L68.0821 53.7102ZM79.4288 37.0772L68.0821 53.7102L69.5436 54.7072L80.8904 38.0743L79.4288 37.0772ZM78.5766 35.4657C79.408 35.4657 79.8965 36.3917 79.4288 37.0772L80.8904 38.0743C82.1597 36.2136 80.8288 33.6965 78.5766 33.6965L78.5766 35.4657ZM21.1215 36.3697C23.053 33.5381 27.2278 33.5381 29.1593 36.3697L30.6208 35.3727C27.987 31.5115 22.2938 31.5115 19.6599 35.3727L21.1215 36.3697ZM9.77482 53.0025L21.1215 36.3697L19.6599 35.3727L8.31328 52.0055L9.77482 53.0025ZM13.7937 60.6115C9.8829 60.6115 7.57069 56.2333 9.7748 53.0026L8.3133 52.0055C5.30841 56.41 8.46048 62.3808 13.7937 62.3808L13.7937 60.6115ZM23.772 60.6115L13.7937 60.6115L13.7937 62.3808L23.772 62.3808L23.772 60.6115ZM22.8958 61.6173C24.594 73.9045 30.3943 82.0153 39.1938 84.625L39.6969 82.9288C31.7927 80.5847 26.2893 73.2481 24.6483 61.375L22.8958 61.6173ZM39.1938 84.625C48.5119 87.3885 59.3105 83.1084 65.8966 74.4737L64.4899 73.4007C58.2562 81.5734 48.1742 85.4429 39.6969 82.9288L39.1938 84.625ZM65.8966 74.4737C66.8349 73.2436 66.5983 71.4857 65.3682 70.5475L64.2952 71.9542C64.7484 72.2999 64.8355 72.9475 64.4899 73.4007L65.8966 74.4737ZM65.3682 70.5475C64.138 69.6092 62.3802 69.8458 61.4419 71.0759L62.8487 72.1489C63.1944 71.6957 63.842 71.6085 64.2952 71.9542L65.3682 70.5475ZM61.4419 71.0759C56.1197 78.0537 47.6405 81.2863 40.7868 79.2537L40.2837 80.9499C47.9948 83.2368 57.1864 79.5725 62.8487 72.1489L61.4419 71.0759ZM40.7868 79.2537C34.5709 77.4102 30.0189 71.5157 28.5112 61.3662L26.7611 61.6261C28.3259 72.1591 33.1622 78.8378 40.2837 80.9499L40.7868 79.2537ZM36.4871 60.6115L27.6362 60.6115L27.6362 62.3808L36.4871 62.3808L36.4871 60.6115ZM40.5059 53.0025C42.7101 56.2333 40.3979 60.6115 36.4871 60.6115L36.4871 62.3808C41.8203 62.3808 44.9724 56.41 41.9674 52.0054L40.5059 53.0025ZM29.1593 36.3697L40.5059 53.0025L41.9675 52.0054L30.6208 35.3727L29.1593 36.3697ZM36.4871 56.7783L27.226 56.7783L27.226 58.5476L36.4871 58.5476L36.4871 56.7783ZM37.3393 55.163C37.8081 55.85 37.3167 56.7783 36.4871 56.7783L36.4871 58.5476C38.7398 58.5476 40.0699 56.0261 38.8008 54.1659L37.3393 55.163ZM25.9926 38.53L37.3393 55.1629L38.8008 54.1659L27.4541 37.533L25.9926 38.53ZM24.2882 38.53C24.698 37.9293 25.5828 37.9293 25.9926 38.53L27.4541 37.533C26.342 35.9027 23.9388 35.9027 22.8266 37.533L24.2882 38.53ZM12.9415 55.163L24.2882 38.53L22.8267 37.533L11.4799 54.1659L12.9415 55.163ZM13.7937 56.7783C12.9641 56.7783 12.4727 55.85 12.9414 55.163L11.4799 54.1659C10.2108 56.0262 11.541 58.5476 13.7937 58.5476L13.7937 56.7783ZM23.3867 56.7783L13.7937 56.7783L13.7937 58.5476L23.3867 58.5476L23.3867 56.7783ZM22.3737 53.6081C22.3737 55.0209 22.4175 56.392 22.5039 57.7204L24.2694 57.6055C24.1856 56.3171 24.1429 54.9844 24.1429 53.6081L22.3737 53.6081ZM25.1749 50.8069C23.6278 50.8069 22.3737 52.061 22.3737 53.6081L24.1429 53.6081C24.1429 53.0382 24.605 52.5761 25.1749 52.5761L25.1749 50.8069ZM27.9762 53.6081C27.9762 52.061 26.722 50.8069 25.1749 50.8069L25.1749 52.5761C25.7449 52.5761 26.207 53.0381 26.207 53.6081L27.9762 53.6081ZM28.1085 57.6025C28.021 56.3252 27.9762 54.9937 27.9762 53.6081L26.207 53.6081C26.207 55.0317 26.253 56.4036 26.3434 57.7234L28.1085 57.6025Z" fill="currentColor"/>
    </symbol>

    <symbol id="day" width="100%" height="100%" viewBox="0 0 92 92">
      <path fill-rule="evenodd" clip-rule="evenodd" d="M47.9167 17.25V9.58333C47.9167 8.52479 47.0585 7.66667 46 7.66667C44.9415 7.66667 44.0833 8.52479 44.0833 9.58333V17.25C44.0833 18.3085 44.9415 19.1667 46 19.1667C47.0585 19.1667 47.9167 18.3085 47.9167 17.25ZM46.0015 65.1667C53.2743 65.1667 59.8223 61.0761 63.0745 54.7147C63.5563 53.7722 64.711 53.3987 65.6535 53.8806C66.596 54.3624 66.9695 55.5171 66.4876 56.4596C62.5863 64.0908 54.7279 69 46.0015 69C33.2986 69 23.0015 58.7016 23.0015 46C23.0015 40.3394 25.0466 35.1562 28.4384 31.149L18.8931 21.6038C18.1446 20.8553 18.1446 19.6418 18.8931 18.8932C19.6417 18.1447 20.8552 18.1447 21.6037 18.8932L31.1488 28.4383C35.156 25.0458 40.3398 23 46.0015 23C58.0565 23 67.9485 32.2794 68.9228 44.0833H82.4167C83.4752 44.0833 84.3333 44.9415 84.3333 46C84.3333 47.0585 83.4752 47.9167 82.4167 47.9167H67.0849H63.25C62.1915 47.9167 61.3333 47.0585 61.3333 46C61.3333 44.9415 62.1915 44.0833 63.25 44.0833H65.0735C64.1115 34.3995 55.938 26.8333 46.0015 26.8333C41.3987 26.8333 37.1748 28.4559 33.8707 31.1602L35.8561 33.1456C36.6046 33.8941 36.6046 35.1077 35.8561 35.8562C35.1076 36.6047 33.894 36.6047 33.1455 35.8562L31.1603 33.8709C28.4568 37.175 26.8349 41.3982 26.8349 46C26.8349 56.5847 35.4158 65.1667 46.0015 65.1667ZM34.5 46C34.5 52.3513 39.6487 57.5 46 57.5C47.0585 57.5 47.9167 58.3581 47.9167 59.4167C47.9167 60.4752 47.0585 61.3333 46 61.3333C37.5316 61.3333 30.6667 54.4684 30.6667 46C30.6667 44.9415 31.5248 44.0833 32.5833 44.0833C33.6419 44.0833 34.5 44.9415 34.5 46ZM47.9167 74.75V82.4167C47.9167 83.4752 47.0585 84.3333 46 84.3333C44.9415 84.3333 44.0833 83.4752 44.0833 82.4167V74.75C44.0833 73.6915 44.9415 72.8333 46 72.8333C47.0585 72.8333 47.9167 73.6915 47.9167 74.75ZM17.25 47.9167H9.58334C8.52479 47.9167 7.66667 47.0585 7.66667 46C7.66667 44.9415 8.52479 44.0833 9.58334 44.0833H17.25C18.3085 44.0833 19.1667 44.9415 19.1667 46C19.1667 47.0585 18.3085 47.9167 17.25 47.9167ZM64.9756 67.6862L70.3959 73.1065C71.1444 73.855 72.358 73.855 73.1065 73.1065C73.855 72.358 73.855 71.1444 73.1065 70.3959L67.6861 64.9756C66.9376 64.2271 65.7241 64.2271 64.9756 64.9756C64.2271 65.7241 64.2271 66.9377 64.9756 67.6862ZM24.3139 64.9756L18.8935 70.3959C18.145 71.1444 18.145 72.358 18.8935 73.1065C19.642 73.855 20.8556 73.855 21.6041 73.1065L27.0244 67.6862C27.7729 66.9377 27.7729 65.7241 27.0244 64.9756C26.2759 64.2271 25.0624 64.2271 24.3139 64.9756ZM64.9759 24.3136L70.3963 18.8932C71.1448 18.1447 72.3584 18.1447 73.1069 18.8932C73.8554 19.6418 73.8554 20.8553 73.1069 21.6038L67.6865 27.0242C66.938 27.7727 65.7244 27.7727 64.9759 27.0242C64.2274 26.2757 64.2274 25.0621 64.9759 24.3136Z" fill="currentColor"/>
      <path d="M63.0745 54.7147L62.1841 54.2595L63.0745 54.7147ZM66.4876 56.4596L65.5972 56.0044L66.4876 56.4596ZM28.4384 31.149L29.2017 31.7951L29.7962 31.0927L29.1455 30.4419L28.4384 31.149ZM18.8931 21.6038L18.186 22.3109L18.8931 21.6038ZM18.8931 18.8932L18.186 18.1861H18.186L18.8931 18.8932ZM31.1488 28.4383L30.4417 29.1454L31.0925 29.7962L31.7949 29.2015L31.1488 28.4383ZM68.9228 44.0833L67.9262 44.1656L68.0019 45.0833H68.9228V44.0833ZM65.0735 44.0833V45.0833H66.1778L66.0686 43.9845L65.0735 44.0833ZM33.8707 31.1602L33.2373 30.3863L32.3823 31.0861L33.1635 31.8673L33.8707 31.1602ZM33.1455 35.8562L33.8526 35.149H33.8526L33.1455 35.8562ZM31.1603 33.8709L31.8674 33.1638L31.086 32.3825L30.3863 33.2377L31.1603 33.8709ZM73.1065 70.3959L73.8136 69.6888L73.1065 70.3959ZM67.6861 64.9756L66.979 65.6827L67.6861 64.9756ZM18.8935 70.3959L19.6006 71.103L18.8935 70.3959ZM24.3139 64.9756L23.6068 64.2685L24.3139 64.9756ZM18.8935 73.1065L18.1864 73.8136L18.8935 73.1065ZM21.6041 73.1065L22.3112 73.8136L21.6041 73.1065ZM27.0244 67.6862L26.3173 66.9791L27.0244 67.6862ZM70.3963 18.8932L71.1034 19.6004L70.3963 18.8932ZM64.9759 24.3136L64.2688 23.6065L64.9759 24.3136ZM73.1069 18.8932L73.814 18.1861L73.1069 18.8932ZM73.1069 21.6038L73.814 22.3109V22.3109L73.1069 21.6038ZM67.6865 27.0242L66.9794 26.317L67.6865 27.0242ZM46.9167 9.58333V17.25H48.9167V9.58333H46.9167ZM46 8.66667C46.5063 8.66667 46.9167 9.07707 46.9167 9.58333H48.9167C48.9167 7.9725 47.6108 6.66667 46 6.66667V8.66667ZM45.0833 9.58333C45.0833 9.07707 45.4937 8.66667 46 8.66667V6.66667C44.3892 6.66667 43.0833 7.9725 43.0833 9.58333H45.0833ZM45.0833 17.25V9.58333H43.0833V17.25H45.0833ZM46 18.1667C45.4937 18.1667 45.0833 17.7563 45.0833 17.25H43.0833C43.0833 18.8608 44.3892 20.1667 46 20.1667V18.1667ZM46.9167 17.25C46.9167 17.7563 46.5063 18.1667 46 18.1667V20.1667C47.6108 20.1667 48.9167 18.8608 48.9167 17.25H46.9167ZM62.1841 54.2595C59.1009 60.2904 52.8945 64.1667 46.0015 64.1667V66.1667C53.6541 66.1667 60.5437 61.8619 63.9648 55.1699L62.1841 54.2595ZM66.1087 52.9902C64.6744 52.2569 62.9173 52.8252 62.1841 54.2595L63.9648 55.1699C64.1953 54.7191 64.7475 54.5405 65.1983 54.771L66.1087 52.9902ZM67.378 56.9148C68.1113 55.4806 67.543 53.7234 66.1087 52.9902L65.1983 54.771C65.6491 55.0014 65.8277 55.5537 65.5972 56.0044L67.378 56.9148ZM46.0015 70C55.1077 70 63.3077 64.8766 67.378 56.9148L65.5972 56.0044C61.8649 63.305 54.3481 68 46.0015 68V70ZM22.0015 46C22.0015 59.2539 32.7463 70 46.0015 70V68C33.8509 68 24.0015 58.1494 24.0015 46H22.0015ZM27.6751 30.503C24.1363 34.6839 22.0015 40.0941 22.0015 46H24.0015C24.0015 40.5847 25.957 35.6284 29.2017 31.7951L27.6751 30.503ZM18.186 22.3109L27.7313 31.8561L29.1455 30.4419L19.6003 20.8967L18.186 22.3109ZM18.186 18.1861C17.047 19.3252 17.047 21.1719 18.186 22.3109L19.6003 20.8967C19.2423 20.5387 19.2423 19.9583 19.6003 19.6004L18.186 18.1861ZM22.3108 18.1861C21.1718 17.0471 19.3251 17.0471 18.186 18.1861L19.6003 19.6004C19.9582 19.2424 20.5386 19.2424 20.8966 19.6004L22.3108 18.1861ZM31.8559 27.7312L22.3108 18.1861L20.8966 19.6004L30.4417 29.1454L31.8559 27.7312ZM46.0015 22C40.0944 22 34.6836 24.1354 30.5026 27.6751L31.7949 29.2015C35.6283 25.9561 40.5852 24 46.0015 24V22ZM69.9194 44.0011C68.9026 31.6828 58.5812 22 46.0015 22V24C57.5317 24 66.9943 32.8759 67.9262 44.1656L69.9194 44.0011ZM82.4167 43.0833H68.9228V45.0833H82.4167V43.0833ZM85.3333 46C85.3333 44.3892 84.0275 43.0833 82.4167 43.0833V45.0833C82.9229 45.0833 83.3333 45.4937 83.3333 46H85.3333ZM82.4167 48.9167C84.0275 48.9167 85.3333 47.6108 85.3333 46H83.3333C83.3333 46.5063 82.9229 46.9167 82.4167 46.9167V48.9167ZM67.0849 48.9167H82.4167V46.9167H67.0849V48.9167ZM63.25 48.9167H67.0849V46.9167H63.25V48.9167ZM60.3333 46C60.3333 47.6108 61.6392 48.9167 63.25 48.9167V46.9167C62.7437 46.9167 62.3333 46.5063 62.3333 46H60.3333ZM63.25 43.0833C61.6392 43.0833 60.3333 44.3892 60.3333 46H62.3333C62.3333 45.4937 62.7437 45.0833 63.25 45.0833V43.0833ZM65.0735 43.0833H63.25V45.0833H65.0735V43.0833ZM46.0015 27.8333C55.4188 27.8333 63.1667 35.0047 64.0784 44.1822L66.0686 43.9845C65.0563 33.7944 56.4571 25.8333 46.0015 25.8333V27.8333ZM34.504 31.934C37.6361 29.3706 41.6379 27.8333 46.0015 27.8333V25.8333C41.1594 25.8333 36.7136 27.5412 33.2373 30.3863L34.504 31.934ZM36.5632 32.4385L34.5778 30.4531L33.1635 31.8673L35.149 33.8527L36.5632 32.4385ZM36.5632 36.5633C37.7022 35.4242 37.7022 33.5775 36.5632 32.4385L35.149 33.8527C35.5069 34.2107 35.5069 34.7911 35.149 35.149L36.5632 36.5633ZM32.4384 36.5633C33.5774 37.7023 35.4241 37.7023 36.5632 36.5633L35.149 35.149C34.791 35.507 34.2106 35.507 33.8526 35.149L32.4384 36.5633ZM30.4531 34.578L32.4384 36.5633L33.8526 35.149L31.8674 33.1638L30.4531 34.578ZM27.8349 46C27.8349 41.6374 29.3716 37.6361 31.9342 34.5042L30.3863 33.2377C27.542 36.7138 25.8349 41.159 25.8349 46H27.8349ZM46.0015 64.1667C35.9681 64.1667 27.8349 56.0324 27.8349 46H25.8349C25.8349 57.1369 34.8635 66.1667 46.0015 66.1667V64.1667ZM46 56.5C40.201 56.5 35.5 51.799 35.5 46H33.5C33.5 52.9036 39.0964 58.5 46 58.5V56.5ZM48.9167 59.4167C48.9167 57.8058 47.6108 56.5 46 56.5V58.5C46.5063 58.5 46.9167 58.9104 46.9167 59.4167H48.9167ZM46 62.3333C47.6108 62.3333 48.9167 61.0275 48.9167 59.4167H46.9167C46.9167 59.9229 46.5063 60.3333 46 60.3333V62.3333ZM29.6667 46C29.6667 55.0207 36.9793 62.3333 46 62.3333V60.3333C38.0839 60.3333 31.6667 53.9161 31.6667 46H29.6667ZM32.5833 43.0833C30.9725 43.0833 29.6667 44.3892 29.6667 46H31.6667C31.6667 45.4937 32.0771 45.0833 32.5833 45.0833V43.0833ZM35.5 46C35.5 44.3892 34.1942 43.0833 32.5833 43.0833V45.0833C33.0896 45.0833 33.5 45.4937 33.5 46H35.5ZM48.9167 82.4167V74.75H46.9167V82.4167H48.9167ZM46 85.3333C47.6108 85.3333 48.9167 84.0275 48.9167 82.4167H46.9167C46.9167 82.9229 46.5063 83.3333 46 83.3333V85.3333ZM43.0833 82.4167C43.0833 84.0275 44.3892 85.3333 46 85.3333V83.3333C45.4937 83.3333 45.0833 82.9229 45.0833 82.4167H43.0833ZM43.0833 74.75V82.4167H45.0833V74.75H43.0833ZM46 71.8333C44.3892 71.8333 43.0833 73.1392 43.0833 74.75H45.0833C45.0833 74.2437 45.4937 73.8333 46 73.8333V71.8333ZM48.9167 74.75C48.9167 73.1392 47.6108 71.8333 46 71.8333V73.8333C46.5063 73.8333 46.9167 74.2437 46.9167 74.75H48.9167ZM9.58334 48.9167H17.25V46.9167H9.58334V48.9167ZM6.66667 46C6.66667 47.6108 7.97251 48.9167 9.58334 48.9167V46.9167C9.07708 46.9167 8.66667 46.5063 8.66667 46H6.66667ZM9.58334 43.0833C7.97251 43.0833 6.66667 44.3892 6.66667 46H8.66667C8.66667 45.4937 9.07708 45.0833 9.58334 45.0833V43.0833ZM17.25 43.0833H9.58334V45.0833H17.25V43.0833ZM20.1667 46C20.1667 44.3892 18.8608 43.0833 17.25 43.0833V45.0833C17.7563 45.0833 18.1667 45.4937 18.1667 46H20.1667ZM17.25 48.9167C18.8608 48.9167 20.1667 47.6108 20.1667 46H18.1667C18.1667 46.5063 17.7563 46.9167 17.25 46.9167V48.9167ZM71.103 72.3994L65.6827 66.9791L64.2685 68.3933L69.6888 73.8136L71.103 72.3994ZM72.3994 72.3994C72.0414 72.7574 71.461 72.7574 71.103 72.3994L69.6888 73.8136C70.8278 74.9527 72.6746 74.9527 73.8136 73.8136L72.3994 72.3994ZM72.3994 71.103C72.7573 71.461 72.7573 72.0414 72.3994 72.3994L73.8136 73.8136C74.9526 72.6746 74.9526 70.8279 73.8136 69.6888L72.3994 71.103ZM66.979 65.6827L72.3994 71.103L73.8136 69.6888L68.3932 64.2685L66.979 65.6827ZM65.6827 65.6827C66.0406 65.3247 66.6211 65.3247 66.979 65.6827L68.3932 64.2685C67.2542 63.1295 65.4075 63.1295 64.2685 64.2685L65.6827 65.6827ZM65.6827 66.9791C65.3247 66.6211 65.3247 66.0407 65.6827 65.6827L64.2685 64.2685C63.1294 65.4075 63.1294 67.2543 64.2685 68.3933L65.6827 66.9791ZM19.6006 71.103L25.021 65.6827L23.6068 64.2685L18.1864 69.6888L19.6006 71.103ZM19.6006 72.3994C19.2427 72.0414 19.2427 71.461 19.6006 71.103L18.1864 69.6888C17.0474 70.8279 17.0474 72.6746 18.1864 73.8136L19.6006 72.3994ZM20.897 72.3994C20.539 72.7574 19.9586 72.7574 19.6006 72.3994L18.1864 73.8136C19.3255 74.9527 21.1722 74.9527 22.3112 73.8136L20.897 72.3994ZM26.3173 66.9791L20.897 72.3994L22.3112 73.8136L27.7315 68.3933L26.3173 66.9791ZM26.3173 65.6827C26.6753 66.0407 26.6753 66.6211 26.3173 66.9791L27.7315 68.3933C28.8706 67.2543 28.8706 65.4075 27.7315 64.2685L26.3173 65.6827ZM25.021 65.6827C25.3789 65.3247 25.9594 65.3247 26.3173 65.6827L27.7315 64.2685C26.5925 63.1295 24.7458 63.1295 23.6068 64.2685L25.021 65.6827ZM69.6892 18.1861L64.2688 23.6065L65.6831 25.0207L71.1034 19.6004L69.6892 18.1861ZM73.814 18.1861C72.6749 17.0471 70.8282 17.0471 69.6892 18.1861L71.1034 19.6004C71.4614 19.2424 72.0418 19.2424 72.3997 19.6004L73.814 18.1861ZM73.814 22.3109C74.953 21.1719 74.953 19.3252 73.814 18.1861L72.3997 19.6004C72.7577 19.9583 72.7577 20.5387 72.3997 20.8967L73.814 22.3109ZM68.3936 27.7313L73.814 22.3109L72.3997 20.8967L66.9794 26.317L68.3936 27.7313ZM64.2688 27.7313C65.4079 28.8703 67.2546 28.8703 68.3936 27.7313L66.9794 26.317C66.6214 26.675 66.041 26.675 65.6831 26.317L64.2688 27.7313ZM64.2688 23.6065C63.1298 24.7455 63.1298 26.5922 64.2688 27.7313L65.6831 26.317C65.3251 25.9591 65.3251 25.3787 65.6831 25.0207L64.2688 23.6065Z" fill="currentColor"/>
    </symbol>

    <symbol id="sign" width="100%" height="100%" viewBox="0 0 92 92">
      <path fill-rule="evenodd" clip-rule="evenodd" d="M46 15.3114H61.528C63.1725 15.3114 64.7368 16.0138 65.8279 17.2428L79.5679 32.7008C80.4633 33.7165 80.4633 35.2397 79.5627 36.2613L65.8286 51.7126C64.7368 52.9424 63.1725 53.6448 61.528 53.6448H38.3333V78.5403C38.3333 79.5994 39.1903 80.457 40.25 80.457C41.3096 80.457 42.1666 79.5994 42.1666 78.5403V59.4695C42.1666 58.4109 43.0248 57.5528 44.0833 57.5528C45.1418 57.5528 46 58.4109 46 59.4695V78.5403C46 81.7159 43.4273 84.2903 40.25 84.2903C37.0726 84.2903 34.5 81.7159 34.5 78.5403V53.6448H17.2492C14.0708 53.6448 11.4992 51.0732 11.4992 47.8948V21.0614C11.4992 17.8831 14.0708 15.3114 17.2492 15.3114H34.5V13.4157C34.5 10.2401 37.0726 7.66566 40.25 7.66566C43.4273 7.66566 46 10.2401 46 13.4157V15.3114ZM38.3333 15.3114V13.4157C38.3333 12.3566 39.1903 11.499 40.25 11.499C41.3096 11.499 42.1666 12.3566 42.1666 13.4157V15.3114H38.3333ZM17.2492 49.8113H34.5V47.9158C34.5 46.8573 35.3581 45.9991 36.4166 45.9991C37.4752 45.9991 38.3333 46.8573 38.3333 47.9158V49.8113H61.528C62.0773 49.8113 62.598 49.5775 62.9628 49.1666L76.019 34.478L62.962 19.7885C62.598 19.3785 62.0773 19.1446 61.528 19.1446H17.2492C16.1879 19.1446 15.3325 20 15.3325 21.0613V47.8946C15.3325 48.9559 16.1879 49.8113 17.2492 49.8113Z" fill="currentColor"/>
      <path d="M46 15.3114H45.1154V16.1961H46V15.3114ZM65.8279 17.2428L65.1664 17.8301L65.1667 17.8305L65.8279 17.2428ZM79.5679 32.7008L80.2315 32.1158L80.2291 32.1131L79.5679 32.7008ZM79.5627 36.2613L80.2239 36.849L80.2263 36.8463L79.5627 36.2613ZM65.8286 51.7126L65.1674 51.125L65.1671 51.1253L65.8286 51.7126ZM38.3333 53.6448V52.7602H37.4487V53.6448H38.3333ZM34.5 53.6448H35.3846V52.7602H34.5V53.6448ZM34.5 15.3114V16.1961H35.3846V15.3114H34.5ZM38.3333 15.3114H37.4487V16.1961H38.3333V15.3114ZM42.1666 15.3114V16.1961H43.0513V15.3114H42.1666ZM34.5 49.8113V50.6959H35.3846V49.8113H34.5ZM38.3333 49.8113H37.4487V50.6959H38.3333V49.8113ZM62.9628 49.1666L62.3016 48.5789L62.3013 48.5793L62.9628 49.1666ZM76.019 34.478L76.6801 35.0657L77.2025 34.478L76.6801 33.8903L76.019 34.478ZM62.962 19.7885L62.3005 20.3758L62.3009 20.3762L62.962 19.7885ZM46 16.1961H61.528V14.4268H46V16.1961ZM61.528 16.1961C62.92 16.1961 64.2433 16.7905 65.1664 17.8301L66.4894 16.6555C65.2302 15.2372 63.4251 14.4268 61.528 14.4268V16.1961ZM65.1667 17.8305L78.9067 33.2885L80.2291 32.1131L66.4891 16.6551L65.1667 17.8305ZM78.9043 33.2858C79.504 33.966 79.5061 34.9879 78.8992 35.6763L80.2263 36.8463C81.4206 35.4916 81.4227 33.467 80.2315 32.1158L78.9043 33.2858ZM78.9015 35.6736L65.1674 51.125L66.4898 52.3003L80.2239 36.849L78.9015 35.6736ZM65.1671 51.1253C64.2433 52.1658 62.9199 52.7602 61.528 52.7602V54.5294C63.4252 54.5294 65.2302 53.719 66.4901 52.3L65.1671 51.1253ZM61.528 52.7602H38.3333V54.5294H61.528V52.7602ZM37.4487 53.6448V78.5403H39.2179V53.6448H37.4487ZM37.4487 78.5403C37.4487 80.0878 38.7016 81.3416 40.25 81.3416V79.5724C39.679 79.5724 39.2179 79.111 39.2179 78.5403H37.4487ZM40.25 81.3416C41.7984 81.3416 43.0513 80.0878 43.0513 78.5403H41.282C41.282 79.111 40.8209 79.5724 40.25 79.5724V81.3416ZM43.0513 78.5403V59.4695H41.282V78.5403H43.0513ZM43.0513 59.4695C43.0513 58.8995 43.5133 58.4374 44.0833 58.4374V56.6682C42.5362 56.6682 41.282 57.9224 41.282 59.4695H43.0513ZM44.0833 58.4374C44.6533 58.4374 45.1154 58.8995 45.1154 59.4695H46.8846C46.8846 57.9224 45.6304 56.6682 44.0833 56.6682V58.4374ZM45.1154 59.4695V78.5403H46.8846V59.4695H45.1154ZM45.1154 78.5403C45.1154 81.2275 42.9386 83.4057 40.25 83.4057V85.1749C43.9161 85.1749 46.8846 82.2043 46.8846 78.5403H45.1154ZM40.25 83.4057C37.5614 83.4057 35.3846 81.2275 35.3846 78.5403H33.6154C33.6154 82.2043 36.5839 85.1749 40.25 85.1749V83.4057ZM35.3846 78.5403V53.6448H33.6154V78.5403H35.3846ZM34.5 52.7602H17.2492V54.5294H34.5V52.7602ZM17.2492 52.7602C14.5593 52.7602 12.3838 50.5846 12.3838 47.8948H10.6145C10.6145 51.5617 13.5822 54.5294 17.2492 54.5294V52.7602ZM12.3838 47.8948V21.0614H10.6145V47.8948H12.3838ZM12.3838 21.0614C12.3838 18.3716 14.5593 16.1961 17.2492 16.1961V14.4268C13.5822 14.4268 10.6145 17.3945 10.6145 21.0614H12.3838ZM17.2492 16.1961H34.5V14.4268H17.2492V16.1961ZM33.6154 13.4157V15.3114H35.3846V13.4157H33.6154ZM40.25 6.78104C36.5839 6.78104 33.6154 9.7517 33.6154 13.4157H35.3846C35.3846 10.7285 37.5614 8.55027 40.25 8.55027V6.78104ZM46.8846 13.4157C46.8846 9.7517 43.9161 6.78104 40.25 6.78104V8.55027C42.9386 8.55027 45.1154 10.7285 45.1154 13.4157H46.8846ZM46.8846 15.3114V13.4157H45.1154V15.3114H46.8846ZM39.2179 15.3114V13.4157H37.4487V15.3114H39.2179ZM39.2179 13.4157C39.2179 12.845 39.679 12.3836 40.25 12.3836V10.6144C38.7016 10.6144 37.4487 11.8682 37.4487 13.4157H39.2179ZM40.25 12.3836C40.8209 12.3836 41.282 12.845 41.282 13.4157H43.0513C43.0513 11.8682 41.7984 10.6144 40.25 10.6144V12.3836ZM41.282 13.4157V15.3114H43.0513V13.4157H41.282ZM38.3333 16.1961H42.1666V14.4268H38.3333V16.1961ZM34.5 48.9267H17.2492V50.6959H34.5V48.9267ZM33.6154 47.9158V49.8113H35.3846V47.9158H33.6154ZM36.4166 45.1145C34.8695 45.1145 33.6154 46.3687 33.6154 47.9158H35.3846C35.3846 47.3458 35.8466 46.8838 36.4166 46.8838V45.1145ZM39.2179 47.9158C39.2179 46.3687 37.9637 45.1145 36.4166 45.1145V46.8838C36.9866 46.8838 37.4487 47.3458 37.4487 47.9158H39.2179ZM39.2179 49.8113V47.9158H37.4487V49.8113H39.2179ZM61.528 48.9267H38.3333V50.6959H61.528V48.9267ZM62.3013 48.5793C62.1045 48.8009 61.8246 48.9267 61.528 48.9267V50.6959C62.3299 50.6959 63.0915 50.354 63.6243 49.754L62.3013 48.5793ZM75.3578 33.8903L62.3016 48.5789L63.6239 49.7543L76.6801 35.0657L75.3578 33.8903ZM62.3009 20.3762L75.3578 35.0657L76.6801 33.8903L63.6232 19.2008L62.3009 20.3762ZM61.528 20.0292C61.8249 20.0292 62.1047 20.1552 62.3005 20.3758L63.6236 19.2012C63.0913 18.6017 62.3297 18.26 61.528 18.26V20.0292ZM17.2492 20.0292H61.528V18.26H17.2492V20.0292ZM16.2171 21.0613C16.2171 20.4886 16.6764 20.0292 17.2492 20.0292V18.26C15.6993 18.26 14.4479 19.5115 14.4479 21.0613H16.2171ZM16.2171 47.8946V21.0613H14.4479V47.8946H16.2171ZM17.2492 48.9267C16.6764 48.9267 16.2171 48.4674 16.2171 47.8946H14.4479C14.4479 49.4445 15.6993 50.6959 17.2492 50.6959V48.9267Z" fill="currentColor"/>
    </symbol>

  </defs>
</svg>