<?xml version="1.0"?>
<svg xmlns="http://www.w3.org/2000/svg" xmlns:xlink="http://www.w3.org/1999/xlink" version="1.1" xml:space="preserve">
  <defs>

    <symbol id="loader" width="100%" height="100%" viewBox="22 22 44 44">
      <circle cx="44" cy="44" r="20.2" fill="none" stroke="currentColor" stroke-width="4"></circle>
    </symbol>

    <symbol id="burger" width="100%" height="100%" viewBox="0 0 48 48">
      <path d="M41,14H7a2,2,0,0,1,0-4H41A2,2,0,0,1,41,14Z" fill="currentColor"/>
      <path d="M41,26H7a2,2,0,0,1,0-4H41A2,2,0,0,1,41,26Z" fill="currentColor"/>
      <path d="M41,38H7a2,2,0,0,1,0-4H41A2,2,0,0,1,41,38Z" fill="currentColor"/>
    </symbol>

    <symbol id="close" width="100%" height="100%" viewBox="0 0 16 16">
      <path d="M1 15L15 1M1 1L15 15" stroke="currentColor" stroke-width="2" stroke-linecap="round" stroke-linejoin="round"/>
    </symbol>

    <symbol id="arrow" width="100%" height="100%" viewBox="0 0 18 18">
      <path fill-rule="evenodd" clip-rule="evenodd" d="M9.26361 2.96356C9.61508 2.61208 10.1849 2.61208 10.5364 2.96356L15.9364 8.36356C16.2879 8.71503 16.2879 9.28488 15.9364 9.63635L10.5364 15.0363C10.1849 15.3878 9.61508 15.3878 9.26361 15.0363C8.91214 14.6849 8.91214 14.115 9.26361 13.7636L13.1272 9.89995L2.7 9.89995C2.20295 9.89995 1.8 9.49701 1.8 8.99995C1.8 8.5029 2.20295 8.09995 2.7 8.09995H13.1272L9.26361 4.23635C8.91214 3.88488 8.91214 3.31503 9.26361 2.96356Z" fill="currentColor"/>
    </symbol>

    <symbol id="arrow-left" width="100%" height="100%" viewBox="0 0 10 16">
      <path d="M9.59583 13.9789C9.83051 14.2075 9.96089 14.5083 9.94785 14.8211C9.94785 15.1338 9.81747 15.4226 9.56975 15.6511C9.33507 15.8677 9.00913 16 8.67014 16C8.33116 16 8.00521 15.8917 7.7575 15.6752L0.378096 8.86617C0.260756 8.75789 0.169492 8.62556 0.104302 8.4812C0.0391134 8.33684 0 8.18045 0 8.02406C0 7.86767 0.0391134 7.71128 0.104302 7.55489C0.169492 7.41053 0.260756 7.2782 0.378096 7.16992L7.7575 0.360902C7.87484 0.252632 8.01825 0.156391 8.17471 0.0962406C8.3442 0.0360902 8.51369 0 8.68318 0C8.85267 0 9.0352 0.0240601 9.19166 0.0842105C9.34811 0.144361 9.49153 0.240601 9.6219 0.348872C9.73924 0.457143 9.83051 0.601504 9.8957 0.745865C9.97392 0.890226 10 1.04662 10 1.21504C10 1.37143 9.96089 1.52782 9.8957 1.67218C9.83051 1.81654 9.72621 1.94887 9.59583 2.06917L3.14211 8.02406L4.36767 9.14286L9.59583 13.9789Z" fill="currentColor"/>
    </symbol>

    <symbol id="arrow-right" width="100%" height="100%" viewBox="0 0 10 16">
      <path d="M0.404172 13.9789C0.169492 14.2075 0.039114 14.5083 0.0521517 14.8211C0.0521517 15.1338 0.182529 15.4226 0.430248 15.6511C0.664928 15.8677 0.990873 16 1.32986 16C1.66884 16 1.99479 15.8917 2.2425 15.6752L9.6219 8.86617C9.73924 8.75789 9.83051 8.62556 9.8957 8.4812C9.96089 8.33684 10 8.18045 10 8.02406C10 7.86767 9.96089 7.71128 9.8957 7.55489C9.83051 7.41053 9.73924 7.2782 9.6219 7.16992L2.2425 0.360902C2.12516 0.252632 1.98175 0.156391 1.82529 0.0962406C1.6558 0.0360902 1.48631 0 1.31682 0C1.14733 0 0.964798 0.0240601 0.808344 0.0842105C0.651891 0.144361 0.508474 0.240601 0.378097 0.348872C0.260756 0.457143 0.169492 0.601504 0.104302 0.745865C0.0260754 0.890226 0 1.04662 0 1.21504C0 1.37143 0.039114 1.52782 0.104302 1.67218C0.169492 1.81654 0.273794 1.94887 0.404172 2.06917L6.85789 8.02406L5.63233 9.14286L0.404172 13.9789Z" fill="currentColor"/>
    </symbol>

    <symbol id="success" width="100%" height="100%" viewBox="0 0 30 30">
      <path d="M15 26.25C21.2132 26.25 26.25 21.2132 26.25 15C26.25 8.7868 21.2132 3.75 15 3.75C8.7868 3.75 3.75 8.7868 3.75 15C3.75 21.2132 8.7868 26.25 15 26.25Z" fill="currentColor"/>
      <path d="M11.25 15L13.75 17.5L18.75 12.5" fill="var(--color-none)" stroke="white" stroke-width="2" stroke-linecap="round" stroke-linejoin="round"/>
    </symbol>

    <symbol id="dzen" width="100%" height="100%" viewBox="0 0 36 36">
      <path d="M36 18.1929V17.8071C28.0286 17.55 24.39 17.3571 21.4714 14.5286C18.6429 11.61 18.4371 7.97143 18.1929 0H17.8071C17.55 7.97143 17.3571 11.61 14.5286 14.5286C11.61 17.3571 7.97143 17.5629 0 17.8071V18.1929C7.97143 18.45 11.61 18.6429 14.5286 21.4714C17.3571 24.39 17.5629 28.0286 17.8071 36H18.1929C18.45 28.0286 18.6429 24.39 21.4714 21.4714C24.39 18.6429 28.0286 18.4371 36 18.1929Z" fill="currentColor"/>
    </symbol>

    <symbol id="tg" width="100%" height="100%" viewBox="0 0 17 15">
      <path fill-rule="evenodd" clip-rule="evenodd" d="M1.28641 6.30375C5.69529 4.30381 8.63035 2.97491 10.1042 2.33019C14.2989 0.5013 15.1807 0.185521 15.7476 0.172363C15.8735 0.172363 16.1507 0.198678 16.3396 0.356568C16.4908 0.488143 16.5286 0.659191 16.5537 0.790765C16.5789 0.92234 16.6041 1.19865 16.5789 1.40917C16.3522 3.90909 15.3696 9.97468 14.8658 12.7641C14.6516 13.9482 14.2359 14.343 13.8328 14.3824C12.9511 14.4614 12.2834 13.7772 11.4394 13.1983C10.1042 12.2904 9.36097 11.7246 8.06349 10.8299C6.56447 9.80364 7.53443 9.23787 8.39101 8.31684C8.61775 8.08001 12.485 4.39591 12.5606 4.06698C12.5732 4.02751 12.5732 3.86961 12.485 3.79067C12.3968 3.71172 12.2708 3.73804 12.1701 3.76436C12.0315 3.79067 9.91523 5.26431 5.79607 8.17211C5.19142 8.60631 4.64976 8.81683 4.15848 8.80367C3.61682 8.79051 2.58388 8.48789 1.80288 8.22474C0.858116 7.90896 0.102307 7.73791 0.165291 7.1853C0.203082 6.89583 0.580986 6.60637 1.28641 6.30375Z" fill="currentColor"/>
    </symbol>

    <symbol id="consultation" width="100%" height="100%" viewBox="0 0 56 56">
      <path fill-rule="evenodd" clip-rule="evenodd" d="M38.8776 28.9032C39.6959 28.9032 40.4664 28.5428 40.9893 27.9142L44.6817 23.4839H51.4839C53.9741 23.4839 56 21.4579 56 18.9677V9.93548C56 7.44529 53.9741 5.41935 51.4839 5.41935H46.9678C46.9678 2.43058 44.5372 0 41.5484 0C38.5597 0 36.1291 2.43058 36.1291 5.41935H31.613C29.1228 5.41935 27.0968 7.44529 27.0968 9.93548V14.9222C25.3197 13.4485 23.0829 12.643 20.7742 12.6452H19.871C16.8759 12.6452 14.0091 14.0226 12.134 16.3475C10.7367 16.688 9.49394 17.4871 8.60422 18.617C7.7145 19.7469 7.22919 21.1425 7.22586 22.5806C7.22595 24.1135 7.55255 25.6288 8.18392 27.0257C8.81529 28.4225 9.73694 29.6688 10.8875 30.6817C11.1901 33.4907 12.9306 35.868 15.3549 37.0774V39.0266L9.05218 40.5097C6.47222 41.1085 4.17186 42.5652 2.52747 44.6414C0.883074 46.7177 -0.0079917 49.2905 5.4011e-05 51.9391V56H37.9355V51.9391C37.9355 50.1697 37.5417 48.4842 36.8363 46.9677H40.2216L43.914 51.3971C44.1714 51.7075 44.4941 51.9571 44.8592 52.1282C45.2242 52.2994 45.6226 52.3878 46.0257 52.3871C46.7545 52.3864 47.4531 52.0966 47.9684 51.5813C48.4837 51.066 48.7735 50.3673 48.7742 49.6386V46.9677H51.4839C53.9741 46.9677 56 44.9418 56 42.4516V35.2258C56 32.7356 53.9741 30.7097 51.4839 30.7097H33.4194C30.9292 30.7097 28.9033 32.7356 28.9033 35.2258V40.5151L28.8834 40.5097L22.5807 39.0266V37.0774C25.005 35.868 26.7455 33.4898 27.048 30.6817C29.1365 28.839 30.4309 26.2596 30.66 23.4839H36.1291V26.1547C36.1298 26.8834 36.4196 27.5821 36.9349 28.0974C37.4502 28.6127 38.1489 28.9025 38.8776 28.9032ZM41.5484 1.80645C43.541 1.80645 45.1613 3.42684 45.1613 5.41935C45.1613 7.41187 43.541 9.03226 41.5484 9.03226C39.5559 9.03226 37.9355 7.41187 37.9355 5.41935C37.9355 3.42684 39.5559 1.80645 41.5484 1.80645ZM15.8905 40.7562L17.8388 43.3548L15.7351 46.1593L13.9161 41.2205L15.8905 40.7562ZM18.9678 44.8596L21.4571 48.1781L19.2415 54.1935H18.695L16.4794 48.1781L18.9678 44.8596ZM1.80651 51.9391C1.80651 47.3055 4.95605 43.3286 9.46676 42.2673L12.143 41.6378L16.7693 54.1935H9.03231V48.7742H7.22586V54.1935H1.80651V51.9391ZM30.7097 35.2258C30.7097 33.7319 31.9255 32.5161 33.4194 32.5161H51.4839C52.9779 32.5161 54.1936 33.7319 54.1936 35.2258V42.4516C54.1936 43.9455 52.9779 45.1613 51.4839 45.1613H46.9678V49.6386C46.9673 49.8319 46.9073 50.0204 46.7961 50.1785C46.6849 50.3367 46.5278 50.4568 46.346 50.5227C46.1642 50.5885 45.9666 50.5969 45.7799 50.5467C45.5932 50.4965 45.4265 50.3901 45.3022 50.2419L41.0688 45.1613H35.7859C34.5124 43.3545 32.7521 41.9466 30.7097 41.1013V35.2258ZM36.1291 51.9391V54.1935H30.7097V48.7742H28.9033V54.1935H21.1662L25.7917 41.6378L28.4679 42.2673C30.6512 42.7741 32.5979 44.0067 33.9896 45.7637C35.3813 47.5206 36.1356 49.6978 36.1291 51.9391ZM24.0204 41.2214L22.2013 46.1602L20.0968 43.3548L22.0451 40.7562L24.0204 41.2214ZM20.7742 39.4412L18.9678 41.8501L17.1613 39.4412V37.7259C17.743 37.8587 18.3464 37.9355 18.9678 37.9355C19.5892 37.9355 20.1926 37.8587 20.7742 37.7259V39.4412ZM25.2904 29.8064C25.2904 33.2929 22.4533 36.129 18.9678 36.129C15.4822 36.129 12.6452 33.2929 12.6452 29.8064V25.564C12.6455 25.3511 12.7035 25.1422 12.8131 24.9597C12.9226 24.7771 13.0796 24.6276 13.2674 24.5272C13.4551 24.4267 13.6666 24.3791 13.8792 24.3892C14.0919 24.3994 14.2978 24.467 14.4751 24.5849L16.8877 26.1935H22.5807C24.0746 26.1935 25.2904 27.4093 25.2904 28.9032V29.8064ZM27.0164 28.1048C26.6362 25.9957 24.7972 24.3871 22.5807 24.3871H17.435L15.4768 23.0819C15.0273 22.7834 14.5054 22.6123 13.9664 22.5867C13.4275 22.5611 12.8916 22.682 12.4159 22.9366C11.9402 23.1912 11.5423 23.5699 11.2646 24.0326C10.9869 24.4952 10.8397 25.0244 10.8388 25.564V27.9883C9.66613 26.4293 9.03211 24.5314 9.03231 22.5806C9.03474 21.5165 9.40461 20.4858 10.0794 19.6629C10.7542 18.84 11.6924 18.2753 12.7355 18.0645L13.1619 17.9787L13.3678 17.7032C14.1272 16.696 15.1095 15.8782 16.2377 15.3141C17.366 14.7499 18.6096 14.4547 19.871 14.4516H20.7742C25.257 14.4516 28.9033 18.0988 28.9033 22.5806C28.9056 24.5805 28.2417 26.5242 27.0164 28.1048ZM30.6637 21.6774C30.5071 19.9535 29.9 18.301 28.9033 16.8858V9.93548C28.9033 8.44155 30.119 7.2258 31.613 7.2258H36.4452C36.7895 8.19431 37.4015 9.04528 38.2101 9.67987C34.879 11.0103 32.5162 14.2637 32.5162 18.0645V19.871H50.5807V18.0645C50.5807 14.2637 48.2179 11.0103 44.8868 9.67987C45.6954 9.04528 46.3074 8.19431 46.6517 7.2258H51.4839C52.9779 7.2258 54.1936 8.44155 54.1936 9.93548V18.9677C54.1936 20.4617 52.9779 21.6774 51.4839 21.6774H43.8345L39.6002 26.7581C39.4759 26.9059 39.3092 27.0119 39.1227 27.0619C38.9361 27.1119 38.7387 27.1035 38.5572 27.0377C38.3756 26.9719 38.2186 26.8519 38.1074 26.694C37.9963 26.5361 37.9363 26.3478 37.9355 26.1547V21.6774H30.6637ZM41.5484 10.8387C45.5326 10.8387 48.7742 14.0804 48.7742 18.0645H34.3226C34.3226 14.0804 37.5643 10.8387 41.5484 10.8387ZM18.0646 46.9679H19.8711V48.7744H18.0646V46.9679ZM18.0646 50.5808H19.8711V52.3873H18.0646V50.5808ZM52.3872 34.3232H32.5162V36.1297H52.3872V34.3232ZM52.3872 37.9361H32.5162V39.7426H52.3872V37.9361ZM48.7743 41.549H36.1291V43.3555H48.7743V41.549ZM52.3872 41.549H50.5807V43.3555H52.3872V41.549Z" fill="currentColor"/>
    </symbol>

    <symbol id="events" width="100%" height="100%" viewBox="0 0 56 56">
      <path fill-rule="evenodd" clip-rule="evenodd" d="M43.9935 17.8C43.8241 17.9694 43.5944 18.0645 43.3548 18.0645H12.6452C12.4056 18.0645 12.1759 17.9694 12.0065 17.8C11.8371 17.6306 11.7419 17.4008 11.7419 17.1613V0.903226C11.7419 0.663675 11.8371 0.433936 12.0065 0.264549C12.1759 0.095161 12.4056 0 12.6452 0H43.3548C43.5944 0 43.8241 0.095161 43.9935 0.264549C44.1629 0.433936 44.2581 0.663675 44.2581 0.903226V17.1613C44.2581 17.4008 44.1629 17.6306 43.9935 17.8ZM31.6129 16.2581H32.5161V13.5484C32.5161 13.0507 32.1115 12.6452 31.6129 12.6452H24.3871C23.8885 12.6452 23.4839 13.0507 23.4839 13.5484V16.2581H24.3871V14.4516H26.1935V16.2581H29.8064V14.4516H31.6129V16.2581ZM27.9991 1.80645H13.5484V16.2581H21.6774V13.5484C21.6774 12.0545 22.8932 10.8387 24.3871 10.8387H28H31.6129C33.1068 10.8387 34.3226 12.0545 34.3226 13.5484V16.2581H42.4516V1.80645H28.0009C29.993 1.80696 31.6129 3.42715 31.6129 5.41935V7.22581C31.6129 9.21832 29.9925 10.8387 28 10.8387C26.0075 10.8387 24.3871 9.21832 24.3871 7.22581V5.41935C24.3871 3.42715 26.007 1.80696 27.9991 1.80645ZM0.806054 21.6726C0.659287 21.6566 0.518663 21.605 0.396516 21.5221C0.149032 21.3541 0 21.0741 0 20.7742V4.51613C0 4.14671 0.224903 3.81523 0.568129 3.67703L9.60039 0.064129C9.73746 0.0096 9.8858 -0.010559 10.0325 0.00541046C10.1791 0.0213799 10.3196 0.0729928 10.4418 0.155746C10.5639 0.2385 10.6639 0.349881 10.7331 0.480171C10.8023 0.610461 10.8385 0.755703 10.8387 0.903226V17.1613C10.8387 17.5307 10.6138 17.8622 10.2706 18.0004L1.23832 21.6133C1.10125 21.6681 0.952822 21.6885 0.806054 21.6726ZM9.03226 2.23729L1.80645 5.12761V19.4401L9.03226 16.5498V2.23729ZM46.3996 0.064129L55.4319 3.67703C55.7751 3.81523 56 4.14671 56 4.51613V20.7742C56.0003 20.9219 55.9643 21.0674 55.8952 21.1979C55.8261 21.3284 55.7261 21.44 55.6038 21.5228C55.4816 21.6057 55.3409 21.6573 55.194 21.673C55.0472 21.6888 54.8987 21.6683 54.7617 21.6133L45.7294 18.0004C45.3862 17.8622 45.1613 17.5307 45.1613 17.1613V0.903226C45.1617 0.755781 45.1981 0.610661 45.2673 0.48049C45.3366 0.350319 45.4366 0.239038 45.5586 0.156328C45.6807 0.0736178 45.8211 0.0219826 45.9677 0.00591393C46.1143 -0.0101548 46.2625 0.00982973 46.3996 0.064129ZM46.9677 16.5498L54.1935 19.4401V5.12761L46.9677 2.23729V16.5498ZM28 3.6129C27.0037 3.6129 26.1935 4.4231 26.1935 5.41935V7.22581C26.1935 8.22206 27.0037 9.03226 28 9.03226C28.9963 9.03226 29.8064 8.22206 29.8064 7.22581V5.41935C29.8064 4.4231 28.9963 3.6129 28 3.6129ZM33.4194 34.3226C33.4194 35.7134 32.8822 37.0505 31.92 38.0547C34.8284 38.621 37.0323 41.1862 37.0323 44.2581V47.871C37.0323 48.1105 36.9371 48.3403 36.7677 48.5096C36.5983 48.679 36.3686 48.7742 36.129 48.7742H19.871C19.6314 48.7742 19.4017 48.679 19.2323 48.5096C19.0629 48.3403 18.9677 48.1105 18.9677 47.871V44.2581C18.9677 41.1862 21.1716 38.621 24.08 38.0547C23.1533 37.0819 22.5806 35.7696 22.5806 34.3226V32.5161C22.5806 29.5274 25.0112 27.0968 28 27.0968C30.9888 27.0968 33.4194 29.5274 33.4194 32.5161V34.3226ZM28 28.9032C26.0075 28.9032 24.3871 30.5236 24.3871 32.5161V34.3226C24.3871 36.3151 26.0075 37.9355 28 37.9355C29.9925 37.9355 31.6129 36.3151 31.6129 34.3226V32.5161C31.6129 30.5236 29.9925 28.9032 28 28.9032ZM22.5806 43.3548H24.3871V46.9677H31.6129V43.3548H33.4194V46.9677H35.2258V44.2581C35.2258 41.7679 33.1999 39.7419 30.7097 39.7419H25.2903C22.8001 39.7419 20.7742 41.7679 20.7742 44.2581V46.9677H22.5806V43.3548ZM52.3871 41.5484C52.3871 42.9392 51.85 44.2763 50.8877 45.2805C53.7961 45.8468 56 48.412 56 51.4839V55.0968C56 55.3363 55.9048 55.5661 55.7355 55.7355C55.5661 55.9048 55.3363 56 55.0968 56H38.8387C38.5992 56 38.3694 55.9048 38.2 55.7355C38.0306 55.5661 37.9355 55.3363 37.9355 55.0968V51.4839C37.9355 48.412 40.1394 45.8468 43.0477 45.2805C42.121 44.3077 41.5484 42.9954 41.5484 41.5484V39.7419C41.5484 36.7532 43.979 34.3226 46.9677 34.3226C49.9565 34.3226 52.3871 36.7532 52.3871 39.7419V41.5484ZM46.9677 36.129C44.9752 36.129 43.3548 37.7494 43.3548 39.7419V41.5484C43.3548 43.5409 44.9752 45.1613 46.9677 45.1613C48.9603 45.1613 50.5806 43.5409 50.5806 41.5484V39.7419C50.5806 37.7494 48.9603 36.129 46.9677 36.129ZM52.3871 54.1936H54.1935V51.4839C54.1935 48.9937 52.1676 46.9677 49.6774 46.9677H44.2581C41.7679 46.9677 39.7419 48.9937 39.7419 51.4839V54.1936H41.5484V50.5806H43.3548V54.1936H50.5806V50.5806H52.3871V54.1936ZM14.4516 41.5484C14.4517 42.9392 13.9145 44.2763 12.9523 45.2805C15.8606 45.8468 18.0645 48.412 18.0645 51.4839V55.0968C18.0645 55.3363 17.9694 55.5661 17.8 55.7355C17.6306 55.9048 17.4008 56 17.1613 56H0.903226C0.663675 56 0.433936 55.9048 0.264549 55.7355C0.095161 55.5661 0 55.3363 0 55.0968V51.4839C0 48.412 2.20387 45.8468 5.11226 45.2805C4.18555 44.3077 3.6129 42.9954 3.6129 41.5484V39.7419C3.6129 36.7532 6.04348 34.3226 9.03226 34.3226C12.021 34.3226 14.4516 36.7532 14.4516 39.7419V41.5484ZM9.03226 36.129C7.03974 36.129 5.41935 37.7494 5.41935 39.7419V41.5484C5.41935 43.5409 7.03974 45.1613 9.03226 45.1613C11.0248 45.1613 12.6452 43.5409 12.6452 41.5484V39.7419C12.6452 37.7494 11.0248 36.129 9.03226 36.129ZM14.4516 54.1936H16.2581V51.4839C16.2581 48.9937 14.2321 46.9677 11.7419 46.9677H6.32258C3.83239 46.9677 1.80645 48.9937 1.80645 51.4839V54.1936H3.6129V50.5806H5.41935V54.1936H12.6452V50.5806H14.4516V54.1936ZM13.5484 25.2903V23.4839H11.7419V25.2903H13.5484ZM16.2581 23.4839H14.4516V25.2903H16.2581V23.4839ZM18.9677 23.4839H17.1613V25.2903H18.9677V23.4839ZM18.9677 28.9032H19.871C21.3649 28.9032 22.5806 27.6875 22.5806 26.1935V22.5806C22.5806 21.0867 21.3649 19.871 19.871 19.871H10.8387C9.34477 19.871 8.12903 21.0867 8.12903 22.5806V26.1935C8.12903 27.6875 9.34477 28.9032 10.8387 28.9032H14.1508L17.5226 31.4323C17.6565 31.5334 17.816 31.5951 17.9832 31.6103C18.1503 31.6254 18.3183 31.5935 18.4683 31.5181C18.7745 31.3645 18.9677 31.052 18.9677 30.7097V28.9032ZM18.0645 27.0968C17.825 27.0968 17.5952 27.1919 17.4258 27.3613C17.2565 27.5307 17.1613 27.7605 17.1613 28V28.9032L14.9935 27.2774C14.8373 27.16 14.6471 27.0966 14.4516 27.0968H10.8387C10.3401 27.0968 9.93548 26.6912 9.93548 26.1935V22.5806C9.93548 22.083 10.3401 21.6774 10.8387 21.6774H19.871C20.3695 21.6774 20.7742 22.083 20.7742 22.5806V26.1935C20.7742 26.6912 20.3695 27.0968 19.871 27.0968H18.0645ZM39.7419 26.1935H41.5484V28H39.7419V26.1935ZM38.0167 19.8754C38.1836 19.8903 38.3431 19.9513 38.4774 20.0516L41.8492 22.5806H45.1613C46.6552 22.5806 47.871 23.7963 47.871 25.2903V28.9032C47.871 30.3971 46.6552 31.6129 45.1613 31.6129H36.129C34.6351 31.6129 33.4194 30.3971 33.4194 28.9032V25.2903C33.4194 23.7963 34.6351 22.5806 36.129 22.5806H37.0323V20.7741C37.0326 20.6065 37.0795 20.4423 37.1678 20.2998C37.256 20.1574 37.3821 20.0422 37.532 19.9673C37.682 19.8923 37.8497 19.8605 38.0167 19.8754ZM46.0645 28.9032V25.2903C46.0645 24.7926 45.6599 24.387 45.1613 24.387H41.5484C41.3524 24.387 41.1627 24.3238 41.0065 24.2064L38.8387 22.5806V23.4838C38.8387 23.7234 38.7435 23.9531 38.5742 24.1225C38.4048 24.2919 38.175 24.387 37.9355 24.387H36.129C35.6305 24.387 35.2258 24.7926 35.2258 25.2903V28.9032C35.2258 29.1427 35.321 29.3725 35.4904 29.5419C35.6597 29.7112 35.8895 29.8064 36.129 29.8064H45.1613C45.4008 29.8064 45.6306 29.7112 45.8 29.5419C45.9694 29.3725 46.0645 29.1427 46.0645 28.9032ZM37.0323 26.1935H38.8387V28H37.0323V26.1935ZM42.4516 26.1935H44.2581V28H42.4516V26.1935Z" fill="currentColor"/>
    </symbol>

    <symbol id="setting" width="100%" height="100%" viewBox="0 0 55 56">
      <path d="M54.2617 39.7929L51.0929 39.2868C50.9179 38.7377 50.6963 38.2045 50.4306 37.693L52.3131 35.0987C52.4354 34.9302 52.4935 34.7237 52.4769 34.5162C52.4604 34.3088 52.3703 34.1141 52.2229 33.9669L49.781 31.5305C49.6336 31.3834 49.4384 31.2935 49.2305 31.277C49.0226 31.2605 48.8156 31.3184 48.6467 31.4405L46.0468 33.3186C45.5341 33.0534 44.9997 32.8323 44.4494 32.6576L43.9422 29.4961C43.9092 29.2906 43.8039 29.1036 43.6453 28.9686C43.4866 28.8336 43.2849 28.7595 43.0763 28.7595H39.6232C39.4146 28.7595 39.2129 28.8336 39.0542 28.9686C38.8956 29.1036 38.7903 29.2906 38.7573 29.4961L38.2501 32.6576C37.6997 32.8322 37.1652 33.0533 36.6525 33.3185L34.0527 31.4404C33.8838 31.3183 33.6768 31.2603 33.4689 31.2768C33.261 31.2933 33.0658 31.3832 32.9184 31.5304L30.4766 33.9668C30.3292 34.1139 30.2391 34.3087 30.2226 34.5161C30.206 34.7236 30.2641 34.9301 30.3864 35.0986L32.2689 37.6928C32.0032 38.2043 31.7816 38.7375 31.6066 39.2866L28.4378 39.7928C28.2319 39.8256 28.0444 39.9307 27.9091 40.089C27.7738 40.2474 27.6995 40.4486 27.6995 40.6567V44.1022C27.6995 44.3103 27.7738 44.5116 27.9091 44.6699C28.0444 44.8283 28.2319 44.9333 28.4378 44.9662L31.6065 45.4723C31.7815 46.0214 32.0031 46.5546 32.2689 47.0661L30.3864 49.6604C30.2641 49.8289 30.206 50.0354 30.2226 50.2428C30.2391 50.4503 30.3292 50.645 30.4766 50.7922L32.9184 53.2285C33.0658 53.3756 33.261 53.4655 33.4689 53.482C33.6768 53.4985 33.8838 53.4405 34.0527 53.3185L36.6526 51.4403C37.1653 51.7056 37.6997 51.9267 38.25 52.1014L38.7572 55.2629C38.7902 55.4683 38.8955 55.6553 39.0541 55.7903C39.2128 55.9253 39.4145 55.9995 39.6231 55.9995H43.0762C43.2848 55.9995 43.4865 55.9253 43.6451 55.7903C43.8038 55.6553 43.9091 55.4683 43.9421 55.2629L44.4493 52.1011C44.9996 51.9264 45.534 51.7054 46.0467 51.4402L48.6466 53.3185C48.8155 53.4405 49.0225 53.4985 49.2304 53.482C49.4383 53.4655 49.6335 53.3756 49.7809 53.2285L52.2228 50.7922C52.3702 50.645 52.4603 50.4503 52.4768 50.2428C52.4933 50.0354 52.4353 49.8289 52.313 49.6604L50.4306 47.0662C50.6965 46.5546 50.9181 46.0213 51.0932 45.4722L54.2617 44.9661C54.4676 44.9332 54.6551 44.8281 54.7904 44.6698C54.9257 44.5115 55 44.3102 55 44.1021V40.6568C55 40.4488 54.9257 40.2475 54.7904 40.0892C54.6551 39.9308 54.4676 39.8258 54.2617 39.7929ZM53.2461 43.3563L50.2657 43.8324C50.0968 43.8594 49.9396 43.935 49.8132 44.05C49.6869 44.165 49.597 44.3143 49.5547 44.4796C49.3561 45.2537 49.0477 45.9955 48.639 46.6826C48.5518 46.8294 48.5095 46.9984 48.5173 47.1689C48.5251 47.3394 48.5827 47.5038 48.683 47.6421L50.454 50.0825L49.0696 51.4638L46.6237 49.6968C46.4853 49.5967 46.3204 49.5392 46.1496 49.5314C45.9788 49.5236 45.8094 49.5658 45.6623 49.6529C44.9736 50.0606 44.2301 50.3682 43.4544 50.5664C43.2887 50.6087 43.1391 50.6984 43.0238 50.8244C42.9086 50.9505 42.8328 51.1074 42.8058 51.2758L42.3284 54.2499H40.3707L39.8935 51.276C39.8665 51.1076 39.7907 50.9507 39.6754 50.8246C39.5602 50.6986 39.4105 50.6089 39.2449 50.5666C38.4691 50.3686 37.7257 50.0609 37.0372 49.653C36.8901 49.5659 36.7207 49.5237 36.5498 49.5315C36.379 49.5392 36.2141 49.5967 36.0755 49.6968L33.6296 51.4638L32.2452 50.0825L34.0162 47.6419C34.1165 47.5037 34.1741 47.3393 34.1819 47.1688C34.1897 46.9983 34.1474 46.8293 34.0601 46.6825C33.6515 45.9954 33.3432 45.2535 33.1446 44.4795C33.1022 44.3142 33.0124 44.1649 32.886 44.0499C32.7597 43.9349 32.6025 43.8593 32.4336 43.8323L29.4529 43.3562V41.4029L32.4336 40.9267C32.6025 40.8997 32.7597 40.824 32.886 40.709C33.0123 40.5941 33.1022 40.4448 33.1446 40.2795C33.3432 39.5055 33.6515 38.7637 34.0601 38.0766C34.1473 37.9298 34.1896 37.7608 34.1818 37.5903C34.174 37.4198 34.1164 37.2554 34.0162 37.1171L32.2452 34.6767L33.6296 33.2954L36.0754 35.0623C36.214 35.1624 36.3788 35.2198 36.5496 35.2276C36.7205 35.2354 36.8899 35.1932 37.037 35.1062C37.7256 34.6983 38.4691 34.3907 39.2449 34.1927C39.4106 34.1504 39.5602 34.0607 39.6755 33.9347C39.7908 33.8087 39.8666 33.6517 39.8936 33.4833L40.3708 30.5094H42.3285L42.8057 33.4833C42.8327 33.6517 42.9085 33.8087 43.0238 33.9347C43.139 34.0607 43.2887 34.1504 43.4544 34.1927C44.2301 34.3907 44.9735 34.6984 45.6621 35.1063C45.8092 35.1933 45.9786 35.2355 46.1494 35.2277C46.3203 35.22 46.4851 35.1625 46.6236 35.0624L49.0695 33.2954L50.4539 34.6767L48.6829 37.1172C48.5826 37.2555 48.525 37.4199 48.5172 37.5904C48.5094 37.7609 48.5517 37.9299 48.6389 38.0767C49.0476 38.7638 49.3559 39.5056 49.5545 40.2796C49.5968 40.4449 49.6867 40.5942 49.813 40.7092C49.9393 40.8242 50.0966 40.8998 50.2654 40.9268L53.2461 41.4029V43.3563ZM41.3495 36.4135C38.0526 36.4135 35.3704 39.0899 35.3704 42.3796C35.3704 45.6693 38.0526 48.3456 41.3495 48.3456C44.6465 48.3456 47.3287 45.6693 47.3287 42.3796C47.3287 39.0899 44.6465 36.4135 41.3495 36.4135ZM41.3495 46.5957C39.0197 46.5957 37.1242 44.7044 37.1242 42.3797C37.1242 40.0549 39.0197 38.1636 41.3495 38.1636C43.6793 38.1636 45.5748 40.0549 45.5748 42.3797C45.5749 44.7044 43.6794 46.5957 41.3495 46.5957ZM8.45058 27.8289V29.301C8.45058 30.3213 9.09864 31.1934 10.0055 31.5294V32.3035C10.0055 33.3194 10.648 34.1881 11.5486 34.5272V35.3061C11.5486 36.6163 12.6169 37.6824 13.93 37.6824H15.8826C17.1957 37.6824 18.264 36.6164 18.264 35.3061V34.5272C19.1646 34.1881 19.807 33.3194 19.807 32.3035V31.4898C20.6609 31.1283 21.2613 30.2834 21.2613 29.3011V27.8283C21.4898 24.0066 22.4392 22.387 23.3577 20.8209C24.198 19.3879 24.9918 18.0345 24.9918 15.4126C24.9918 9.83597 20.4448 5.2991 14.856 5.2991C9.26723 5.2991 4.72021 9.83586 4.72021 15.4125C4.72021 18.0344 5.51395 19.3879 6.35427 20.8208C7.27264 22.387 8.22214 24.0067 8.45058 27.8289ZM12.3801 16.7522H11.1055C10.4026 16.7522 9.83088 16.1817 9.83088 15.4804C9.83088 14.7791 10.4026 14.2086 11.1055 14.2086C11.8084 14.2086 12.3801 14.7791 12.3801 15.4804V16.7522ZM15.5779 26.9245H14.134V18.5022H15.5779V26.9245ZM19.5074 28.6745V29.301C19.5072 29.467 19.4411 29.6262 19.3234 29.7436C19.2058 29.861 19.0462 29.927 18.8799 29.9272H10.832C10.6656 29.927 10.5061 29.861 10.3885 29.7436C10.2708 29.6262 10.2046 29.467 10.2045 29.301V28.6745H19.5074ZM17.4257 32.9296H12.387C12.2206 32.9294 12.0611 32.8634 11.9434 32.746C11.8257 32.6286 11.7595 32.4694 11.7594 32.3033V31.677H18.0532V32.3033C18.053 32.4693 17.9868 32.6285 17.8692 32.7459C17.7516 32.8633 17.5921 32.9294 17.4257 32.9296ZM15.8826 35.9323H13.93C13.7636 35.9321 13.6041 35.8661 13.4864 35.7486C13.3687 35.6312 13.3026 35.472 13.3024 35.306V34.6796H16.5103V35.306C16.5101 35.472 16.4439 35.6312 16.3262 35.7486C16.2085 35.866 16.049 35.9321 15.8826 35.9323ZM14.8559 7.04899C19.4777 7.04899 23.2378 10.8008 23.2378 15.4125C23.2378 17.56 22.6226 18.609 21.8439 19.9371C20.9774 21.4146 19.9132 23.2293 19.571 26.9246H17.3317V18.5023H18.6064C20.2763 18.5023 21.6348 17.1467 21.6348 15.4805C21.6348 13.8143 20.2763 12.4587 18.6064 12.4587C16.9365 12.4587 15.5779 13.8143 15.5779 15.4805V16.7523H14.134V15.4805C14.134 13.8143 12.7754 12.4587 11.1055 12.4587C9.4356 12.4587 8.07701 13.8143 8.07701 15.4805C8.07701 17.1467 9.4356 18.5023 11.1055 18.5023H12.3801V26.9246H10.1409C9.79865 23.2293 8.73449 21.4147 7.86808 19.9371C7.08936 18.609 6.47419 17.5601 6.47419 15.4125C6.47408 10.8008 10.2342 7.04899 14.8559 7.04899ZM17.3317 16.7522V15.4804C17.3317 14.7791 17.9035 14.2086 18.6064 14.2086C19.3092 14.2086 19.881 14.7791 19.881 15.4804C19.881 16.1817 19.3092 16.7522 18.6064 16.7522H17.3317ZM13.9791 3.05112V0.874999C13.9791 0.642935 14.0715 0.420375 14.236 0.256281C14.4004 0.0921872 14.6235 0 14.856 0C15.0886 0 15.3117 0.0921872 15.4761 0.256281C15.6406 0.420375 15.733 0.642935 15.733 0.874999V3.05112C15.733 3.28319 15.6406 3.50575 15.4761 3.66984C15.3117 3.83393 15.0886 3.92612 14.856 3.92612C14.6235 3.92612 14.4004 3.83393 14.236 3.66984C14.0715 3.50575 13.9791 3.28319 13.9791 3.05112ZM6.02279 3.47101C5.90834 3.27015 5.87815 3.03227 5.93883 2.80928C5.9995 2.58629 6.1461 2.3963 6.34665 2.28077C6.54719 2.16524 6.78539 2.13355 7.00927 2.19261C7.23315 2.25166 7.42453 2.39668 7.54164 2.59601L8.63211 4.48054C8.68969 4.58006 8.72706 4.68992 8.74209 4.80384C8.75712 4.91777 8.74951 5.03354 8.7197 5.14453C8.6899 5.25553 8.63847 5.35957 8.56836 5.45074C8.49825 5.5419 8.41083 5.61839 8.3111 5.67585C8.21136 5.7333 8.10126 5.77059 7.98708 5.78558C7.8729 5.80058 7.75688 5.79299 7.64564 5.76325C7.5344 5.73351 7.43012 5.68219 7.33876 5.61224C7.24739 5.54228 7.17073 5.45506 7.11315 5.35554L6.02279 3.47101ZM3.52013 10.4565C3.46257 10.556 3.38591 10.6433 3.29455 10.7132C3.20318 10.7832 3.09889 10.8345 2.98763 10.8643C2.87638 10.894 2.76034 10.9016 2.64615 10.8866C2.53196 10.8715 2.42186 10.8342 2.32213 10.7767L0.433432 9.68865C0.23366 9.57179 0.0883217 9.38083 0.0291321 9.15745C-0.0300575 8.93407 0.00170731 8.69639 0.117495 8.49629C0.233282 8.29619 0.423692 8.14991 0.647172 8.08937C0.870652 8.02883 1.10906 8.05894 1.31037 8.17315L3.19906 9.26121C3.2988 9.31866 3.38622 9.39514 3.45633 9.4863C3.52644 9.57745 3.57787 9.68149 3.60769 9.79248C3.6375 9.90347 3.64511 10.0192 3.63009 10.1332C3.61507 10.2471 3.5777 10.3569 3.52013 10.4565ZM21.0797 4.48065L22.1702 2.59612C22.2278 2.49658 22.3044 2.40933 22.3958 2.33936C22.4871 2.26939 22.5914 2.21807 22.7027 2.18833C22.8139 2.15859 22.9299 2.15101 23.0441 2.16603C23.1583 2.18105 23.2684 2.21838 23.3681 2.27587C23.5695 2.39191 23.7165 2.58302 23.7767 2.80717C23.8369 3.03132 23.8053 3.27015 23.6891 3.47112L22.5986 5.35565C22.541 5.4552 22.4644 5.54246 22.373 5.61245C22.2817 5.68243 22.1774 5.73375 22.0661 5.7635C21.9549 5.79324 21.8388 5.80081 21.7246 5.78578C21.6104 5.77075 21.5003 5.73341 21.4006 5.6759C21.1992 5.55985 21.0523 5.36872 20.9921 5.14457C20.9319 4.92043 20.9635 4.68161 21.0797 4.48065ZM26.1918 10.4565C26.0756 10.2555 26.044 10.0167 26.1042 9.79251C26.1644 9.56836 26.3114 9.37724 26.5128 9.26121L28.4015 8.17315C28.6026 8.06182 28.8395 8.03378 29.0612 8.09508C29.2828 8.15637 29.4715 8.30209 29.5865 8.50083C29.7015 8.69958 29.7336 8.93545 29.676 9.15763C29.6184 9.3798 29.4756 9.57051 29.2784 9.68865L27.3897 10.7767C27.29 10.8342 27.1799 10.8716 27.0657 10.8866C26.9515 10.9016 26.8355 10.894 26.7243 10.8643C26.613 10.8346 26.5087 10.7832 26.4174 10.7132C26.326 10.6433 26.2494 10.556 26.1918 10.4565ZM27.1685 48.013L19.4972 42.3973C19.3665 42.3018 19.2118 42.2442 19.0503 42.231C18.8888 42.2178 18.7268 42.2495 18.5823 42.3225C18.4378 42.3956 18.3163 42.5072 18.2314 42.6449C18.1466 42.7826 18.1016 42.9411 18.1015 43.1028V45.1221C13.9572 45.0094 10.0847 43.978 8.71969 38.6742C8.67604 38.5046 8.58243 38.3521 8.45096 38.2362C8.31949 38.1203 8.1562 38.0464 7.9822 38.024C7.8082 38.0017 7.63149 38.032 7.4749 38.1109C7.31832 38.1898 7.18906 38.3138 7.10383 38.4668C5.47657 41.3885 5.502 44.8236 7.17168 47.6552C8.15264 49.3189 9.67511 50.6987 11.5743 51.6454C13.4355 52.5731 15.6277 53.0913 18.1015 53.1894V55.1249C18.1014 55.2914 18.149 55.4544 18.2386 55.5949C18.3282 55.7353 18.4561 55.8473 18.6073 55.9178C18.7585 55.9882 18.9266 56.0142 19.0921 55.9926C19.2575 55.971 19.4133 55.9028 19.5413 55.796L27.2126 49.3894C27.3145 49.3043 27.3957 49.1971 27.45 49.076C27.5043 48.9549 27.5304 48.8231 27.5261 48.6905C27.5219 48.5579 27.4875 48.428 27.4255 48.3106C27.3636 48.1932 27.2757 48.0915 27.1685 48.013ZM19.8553 53.2516V52.3317C19.8553 52.0997 19.7629 51.8771 19.5985 51.713C19.434 51.5489 19.211 51.4567 18.9784 51.4567C14.1927 51.4567 10.4402 49.7477 8.6833 46.7678C7.70946 45.1163 7.42841 43.2084 7.84243 41.3828C8.81528 43.3915 10.3062 44.8572 12.2952 45.7546C14.4996 46.7492 16.9107 46.8833 18.9785 46.8833C19.2111 46.8833 19.4341 46.7911 19.5986 46.627C19.763 46.4629 19.8554 46.2404 19.8554 46.0083V44.8299L25.2293 48.7638L19.8553 53.2516ZM27.1158 16.5784C27.12 16.711 27.1545 16.8409 27.2164 16.9583C27.2784 17.0756 27.3664 17.1774 27.4736 17.2559L35.6957 23.2748C35.8264 23.3705 35.9811 23.4282 36.1426 23.4415C36.3042 23.4548 36.4663 23.4231 36.6109 23.35C36.7555 23.2769 36.8769 23.1653 36.9618 23.0274C37.0466 22.8896 37.0915 22.731 37.0915 22.5693V20.3406C41.5826 20.4526 45.7902 21.5477 47.2708 27.3002C47.3145 27.4697 47.4081 27.6223 47.5395 27.7382C47.671 27.8541 47.8343 27.928 48.0083 27.9503C48.1823 27.9727 48.359 27.9424 48.5156 27.8635C48.6722 27.7845 48.8014 27.6606 48.8867 27.5076C50.6198 24.3956 50.5929 20.7375 48.8148 17.7218C47.7696 15.9492 46.1469 14.4787 44.1221 13.4694C42.1203 12.4715 39.7584 11.9175 37.0914 11.8187V9.68394C37.0914 9.51747 37.0438 9.35444 36.9542 9.214C36.8646 9.07357 36.7367 8.96155 36.5855 8.8911C36.4344 8.82065 36.2662 8.79469 36.1008 8.81627C35.9353 8.83785 35.7795 8.90607 35.6515 9.01293L27.4294 15.8794C27.3275 15.9646 27.2463 16.0718 27.1919 16.1929C27.1376 16.3139 27.1116 16.4458 27.1158 16.5784ZM35.3375 11.5573V12.6778C35.3375 12.9098 35.4299 13.1324 35.5943 13.2965C35.7588 13.4606 35.9818 13.5528 36.2144 13.5528C41.3666 13.5528 45.4083 15.3958 47.303 18.6092C48.3862 20.4461 48.6759 22.5768 48.1699 24.6015C47.1358 22.3789 45.5221 20.7636 43.3517 19.7844C40.9999 18.7232 38.424 18.5802 36.2144 18.5802C35.9818 18.5802 35.7588 18.6724 35.5943 18.8364C35.4299 19.0005 35.3375 19.2231 35.3375 19.4552V20.8421L29.4128 16.5051L35.3375 11.5573Z" fill="currentColor"/>
    </symbol>

    <symbol id="invest" width="100%" height="100%" viewBox="0 0 55 56">
      <path fill-rule="evenodd" clip-rule="evenodd" d="M12.9947 23.9829C12.9719 23.9943 12.948 24.0045 12.9241 24.0136C11.9531 24.3654 10.0247 24.3506 8.83171 24.3028L8.84651 24.8799C8.86359 25.5698 8.22952 26.1298 7.40194 26.156L1.80122 26.3313H1.74202C1.01917 26.3427 0.300863 25.8669 0.280373 25.1361L0.000336877 14.1668C-0.0167385 13.477 0.617326 12.9169 1.44377 12.8907L7.04563 12.7154C7.76507 12.6836 8.50159 13.1287 8.56192 13.8538L11.2826 13.5954C11.6548 13.033 12.5587 11.6909 13.6105 10.2691C15.5002 7.72489 16.9653 6.13119 17.967 5.56201C18.4816 5.26945 19.1498 5.13968 19.9022 5.12146C17.9238 2.07522 18.1025 1.32504 18.444 0.869699C18.658 0.590801 19.0792 0.317596 19.9102 0.59877C20.9538 0.950427 21.2237 0.762795 21.5969 0.503358L21.5972 0.503148C22.5944 -0.290287 23.8318 -0.03871 24.7903 0.539575C25.4734 0.956214 25.9002 0.957352 26.5833 0.539575C27.5418 -0.03871 28.7791 -0.293702 29.7763 0.503148L29.7767 0.503358C30.1499 0.762795 30.4198 0.950427 31.4623 0.59877C31.6649 0.530468 32.6894 0.235634 33.0491 1.12241C33.5045 1.83616 32.3399 4.29843 30.5652 6.77663C32.0884 6.58311 33.163 7.43347 33.7879 9.02717C35.4374 9.12506 36.2115 11.552 35.5603 12.9682C36.8068 13.6785 37.3123 15.5932 36.4414 16.8807C37.4147 17.9109 37.2064 19.9702 36.125 21.055C40.6465 29.6144 34.8261 39.6547 25.3925 39.6467C18.4816 39.6467 13.0675 34.1325 13.0675 27.0929C13.0675 25.9728 13.4694 24.7422 14.0921 23.4365L12.9947 23.9829ZM14.429 27.0929C14.429 33.3664 19.2408 38.2807 25.388 38.2807C33.764 38.2829 38.9515 29.3742 34.9297 21.7381C32.6974 22.6863 30.0496 22.7239 29.6022 19.7106C28.3193 18.7613 27.84 17.5387 28.1815 16.1339C26.7631 15.3758 26.5855 14.0587 27.1046 12.3853C26.8204 12.0925 26.5951 11.7477 26.441 11.3699C25.9966 11.5379 25.5304 11.6414 25.0567 11.6773C23.3014 11.8173 22.3372 11.6317 21.8078 11.387L21.2489 11.7126C21.077 14.2795 19.3046 17.2006 17.588 20.0294C16.0341 22.5884 14.429 25.234 14.429 27.0929ZM35.3873 14.7907C35.2234 14.3843 34.8682 14.0018 34.4709 14.0985L29.5737 16.2364C29.2652 17.1733 29.5054 17.9041 30.3319 18.5484L34.8067 16.5494C35.5899 16.1305 35.615 15.3416 35.3873 14.7907ZM35.6161 18.1113C35.5182 17.8096 35.4226 17.7902 35.3349 17.8096L30.9921 19.7505C31.3302 21.4455 33.0651 21.0869 34.7931 20.3071C35.5751 20.0374 35.8313 18.7886 35.6161 18.1113ZM28.9988 14.9922L33.9598 12.8293C34.4652 12.5595 34.5347 11.683 34.2808 11.0204C34.1932 10.7984 33.9496 10.3044 33.5398 10.3955L28.4479 12.679C28.0939 13.8071 28.0073 14.6324 28.9988 14.9922ZM32.4549 9.38916C32.1851 8.76534 31.8573 8.3692 31.4771 8.20869C30.7529 7.90083 29.7156 8.41118 28.8694 8.82747C28.8364 8.84373 28.8036 8.85985 28.7712 8.87576C28.6471 9.51552 28.2749 10.1348 27.6442 10.671C27.7156 10.9326 27.8478 11.1737 28.0301 11.3745L32.4549 9.38916ZM24.1244 1.73827C23.5803 1.42863 22.9473 1.13721 22.3702 1.62443H22.3713C21.768 2.04334 21.1078 2.38371 19.711 1.97163C19.8943 2.45315 20.3712 3.4219 21.6234 5.24327C24.5889 5.69519 27.6453 6.94739 28.2805 7.35947C28.9545 6.99747 31.5214 2.962 31.707 1.95569C30.2738 2.39396 29.6045 2.05131 28.9943 1.62671C28.7359 1.44798 28.6118 1.3683 28.3728 1.3683C27.9072 1.3683 27.6101 1.53108 27.2344 1.73827L27.2231 1.74442C26.8093 1.97056 26.345 2.22434 25.6794 2.22434C25.0091 2.22434 24.5406 1.96693 24.1268 1.73958L24.1244 1.73827ZM1.75796 24.9642L7.35982 24.7889C7.40065 24.7889 7.44128 24.7832 7.48048 24.7718L7.20842 14.0929C7.17126 14.0833 7.13288 14.0795 7.09458 14.0815L1.48589 14.2556C1.4473 14.2566 1.40901 14.2627 1.37206 14.2739L1.64412 24.9528C1.68128 24.9623 1.71966 24.9661 1.75796 24.9642ZM8.60063 15.2198L8.80212 22.9333C10.0293 22.988 11.7277 22.9755 12.421 22.7398L15.202 21.3556C15.5537 20.7416 15.9537 20.0844 16.3683 19.4031C18.0255 16.6802 19.9163 13.5732 19.8954 11.3096C19.896 11.1556 19.9485 11.0064 20.0445 10.8861C20.0973 10.8196 20.1617 10.7633 20.2346 10.7199L21.4868 9.99135C21.6204 9.91346 21.7765 9.8832 21.9295 9.90553C22.0825 9.92787 22.2235 10.0015 22.3292 10.1143C22.4135 10.1655 23.0122 10.4695 24.9474 10.3146C26.6402 10.1678 27.4621 9.09888 27.437 8.4375C26.3863 7.83189 20.4316 5.72138 18.6455 6.7459C16.9459 7.72033 13.45 12.7564 12.2468 14.6154C12.1907 14.7018 12.1158 14.7745 12.0277 14.8279C11.9396 14.8814 11.8405 14.9142 11.7379 14.9239L8.60063 15.2198ZM53.1719 43.0128C53.5829 43.1195 53.9351 43.3842 54.152 43.7493C54.3004 44.008 54.3402 44.3151 54.2624 44.603L51.2127 55.1431C51.0613 55.6679 50.5445 55.9923 49.9401 55.9923C49.913 56.0843 47.3136 55.3312 45.5779 54.8283C44.7567 54.5904 44.1287 54.4085 44.0582 54.3986C43.3387 54.2096 42.765 53.53 42.9699 52.8049L43.382 51.382C41.6244 50.7741 41.5014 50.8116 39.1826 51.5379C38.5338 51.7271 37.6949 51.9842 36.7593 52.2709C33.5006 53.2695 29.0673 54.628 27.3949 54.7333C25.4381 54.7333 23.0031 53.2921 21.2387 52.0229C20.4976 51.4895 19.7255 50.9757 18.9533 50.4619C17.9058 49.7648 16.8582 49.0678 15.8884 48.3221C15.8034 48.2574 15.7175 48.1921 15.6308 48.1264C13.9715 46.8674 12.0703 45.4248 12.4847 44.224C12.6441 43.6206 13.1472 43.1255 13.7676 42.9058C13.7651 42.4519 13.9268 42.0124 14.223 41.6684C15.6624 40.1213 19.1247 41.8229 20.9321 42.7111C21.1701 42.8281 21.3795 42.931 21.5517 43.0105C21.9532 42.6129 22.4613 42.3401 23.0145 42.225C23.703 42.0594 24.4001 41.8883 25.1149 41.7129C26.6941 41.3255 28.3592 40.917 30.2055 40.4993C33.0628 39.855 35.9679 39.518 37.1256 39.5635C40.3198 39.6967 44.3872 41.7549 45.9217 42.595L46.0173 42.266C46.2085 41.6001 46.9815 41.2585 47.7783 41.4862L53.1719 43.0128ZM20.9154 44.2206C19.9546 43.7265 17.8327 42.694 16.4564 42.4595C15.8007 42.3616 15.2725 42.3605 15.1598 42.727C16.9732 42.8227 20.1754 44.71 20.9154 45.1995C20.8476 44.8767 20.8476 44.5434 20.9154 44.2206ZM27.7045 53.3479C29.0922 53.1464 35.0117 51.407 38.7682 50.2368H38.7728C41.3899 49.4172 41.7154 49.3705 43.7497 50.0694L45.5232 43.9405C44.3541 43.2882 40.1343 41.0559 37.0607 40.9273C34.3612 40.8121 28.0849 42.3708 24.406 43.2844C24.011 43.3825 23.6459 43.4731 23.3184 43.5535C22.385 43.772 22.1494 44.3902 22.2393 44.8945C22.336 45.4318 22.829 45.9611 23.6873 45.8541C25.3366 45.6493 31.7506 44.9029 32.2955 44.8395L32.332 44.8353C33.2347 44.7624 33.3838 46.0567 32.4902 46.1922L30.3273 46.4449C28.9551 46.7061 27.7406 47.7441 26.5959 48.7224C26.4035 48.8868 26.2132 49.0495 26.0243 49.2066C25.9047 49.3055 25.755 49.3608 25.5998 49.3632C25.4446 49.3657 25.2932 49.3153 25.1706 49.2202C24.2881 48.5218 23.1918 47.9674 22.1547 47.4429C21.5116 47.1177 20.8912 46.8039 20.3587 46.4745C19.7167 46.0374 18.6261 45.3544 16.5293 44.4699C15.8508 44.1841 15.2088 44.0544 14.7011 44.0896C14.6275 44.1129 14.5505 44.1229 14.4734 44.1192C14.2013 44.1705 13.8758 44.3185 13.8018 44.5746C13.9838 45.1387 15.2211 46.0911 16.0423 46.7233C16.1558 46.8106 16.2614 46.8919 16.3551 46.9651C17.3972 47.7892 18.5528 48.5593 19.7113 49.3313C20.4942 49.853 21.2784 50.3756 22.0298 50.9164C24.4227 52.6376 26.491 53.5243 27.7045 53.3479ZM26.6891 46.8729L24.4955 47.1336C24.8586 47.3453 25.2218 47.5707 25.569 47.8132C25.6365 47.7557 25.7038 47.6981 25.7711 47.6407C26.071 47.3843 26.3702 47.1286 26.6891 46.8729ZM49.8251 54.6172C49.862 54.6285 49.9003 54.6346 49.9389 54.6354L52.9066 44.3731C52.8734 44.3528 52.8373 44.3375 52.7996 44.3276L47.4084 42.801C47.3714 42.7901 47.3331 42.7843 47.2945 42.7839L44.3257 53.0451C44.3591 53.0652 44.3951 53.0805 44.4327 53.0906L49.8251 54.6172ZM26.244 21.8518V25.7325C31.0433 27.1509 30.5903 31.6531 26.244 32.5581V33.6065C26.244 33.7877 26.1721 33.9614 26.044 34.0895C25.9159 34.2176 25.7422 34.2895 25.561 34.2895C25.3799 34.2895 25.2061 34.2176 25.078 34.0895C24.95 33.9614 24.878 33.7877 24.878 33.6065V32.5638C23.4854 32.3882 22.2008 31.7223 21.2546 30.6855C21.139 30.546 21.0835 30.3663 21.1003 30.1859C21.1172 30.0055 21.2051 29.8392 21.3445 29.7236C21.484 29.6079 21.6637 29.5525 21.8441 29.5693C22.0245 29.5862 22.1908 29.674 22.3064 29.8135C22.9886 30.5412 23.8931 31.0217 24.878 31.1795V26.7547C23.5461 26.3768 21.7247 25.761 21.7247 23.7666C21.7247 22.174 23.1386 20.7579 24.878 20.479V19.4317C24.878 19.2505 24.95 19.0768 25.078 18.9487C25.2061 18.8206 25.3799 18.7487 25.561 18.7487C25.7422 18.7487 25.9159 18.8206 26.044 18.9487C26.1721 19.0768 26.244 19.2505 26.244 19.4317V20.4721C28.2749 20.7169 29.4155 21.886 29.469 21.9418C30.0746 22.618 29.1263 23.5173 28.4809 22.8843C28.4456 22.849 27.6624 22.0704 26.244 21.8518ZM24.878 21.8723C23.8967 22.1216 23.0908 22.9242 23.0908 23.7654C23.0908 24.6124 23.8068 24.9937 24.878 25.3272V21.8723ZM26.244 31.1568V27.1805C29.115 28.197 28.8702 30.4362 26.244 31.1568Z" fill="currentColor"/>
    </symbol>

    <symbol id="chart" width="100%" height="100%" viewBox="0 0 100 80">
      <path d="M53.3499 16.9039C49.6893 14.7914 45.5784 13.5792 41.3567 13.3675C37.1349 13.1557 32.9233 13.9504 29.0694 15.686C25.2155 17.4217 21.8299 20.0484 19.1918 23.3495C16.5538 26.6506 14.739 30.5313 13.8972 34.6715L17.2294 35.3376C17.9709 31.7256 19.5592 28.3408 21.8637 25.4613C24.1682 22.5819 27.1232 20.2899 30.4861 18.7735C33.849 17.2571 37.5238 16.5596 41.2087 16.7383C44.8937 16.9169 48.4837 17.9667 51.6839 19.8014L53.3499 16.9039ZM40.0213 66.6433C44.6981 66.6463 49.2938 65.4233 53.3499 63.0964L51.6839 60.199C48.4826 62.0405 44.8895 63.0959 41.2003 63.2781C37.5111 63.4604 33.8314 62.7644 30.464 61.2475C27.0966 59.7305 24.1377 57.4359 21.8311 54.5526C19.5244 51.6693 17.9358 48.2796 17.1961 44.6627L13.8639 45.3288C15.0941 51.3524 18.3707 56.7654 23.138 60.6501C27.9054 64.5348 33.8703 66.6522 40.0213 66.6433ZM13.3641 40.0002V41.8152L16.6962 41.5155C16.6074 40.5072 16.6074 39.4931 16.6962 38.4848L13.3641 38.1851V40.0002Z" fill="currentColor"/>
      <path d="M1.53482 46.461C1.29918 46.4797 1.07023 46.5483 0.863158 46.6622C0.65609 46.7761 0.47565 46.9328 0.333825 47.1218C0.191999 47.3108 0.0920352 47.5278 0.0405733 47.7584C-0.0108886 47.989 -0.0126705 48.2279 0.0353463 48.4592C1.0668 53.3727 3.01082 58.0495 5.76665 62.247C5.89574 62.4432 6.0649 62.61 6.26303 62.7363C6.46116 62.8625 6.68377 62.9455 6.91625 62.9797C7.14528 63.0149 7.37915 63.002 7.60292 62.9418C7.82668 62.8816 8.03542 62.7754 8.21579 62.63C9.46477 61.637 11.0357 61.1381 12.6291 61.2285C14.2225 61.3189 15.7269 61.9923 16.8554 63.1202C17.984 64.2481 18.6577 65.7517 18.7481 67.3442C18.8386 68.9368 18.3394 70.5069 17.3459 71.7553C17.1982 71.9375 17.0906 72.1489 17.0303 72.3756C16.97 72.6023 16.9583 72.8392 16.996 73.0708C17.0324 73.3002 17.1165 73.5194 17.2427 73.7144C17.369 73.9094 17.5346 74.0759 17.7291 74.2031C21.9365 76.973 26.6275 78.9275 31.5575 79.9647C31.7864 80.0126 32.0229 80.0117 32.2514 79.9623C32.48 79.9128 32.6956 79.8158 32.8842 79.6776C33.0727 79.5394 33.2301 79.363 33.346 79.16C33.4619 78.957 33.5337 78.7319 33.5568 78.4993C33.7196 76.8989 34.4709 75.4158 35.6652 74.3374C36.8595 73.2589 38.4117 72.6619 40.0212 72.6619C41.6307 72.6619 43.183 73.2589 44.3772 74.3374C45.5715 75.4158 46.3228 76.8989 46.4856 78.4993C46.5074 78.7321 46.578 78.9577 46.6928 79.1614C46.8077 79.3651 46.9641 79.5423 47.152 79.6816C47.4379 79.8884 47.7821 79.9992 48.135 79.998H48.4849C53.401 78.9671 58.0802 77.0241 62.28 74.2697C62.4745 74.1425 62.6401 73.976 62.7664 73.781C62.8926 73.586 62.9767 73.3668 63.0131 73.1374C63.0508 72.9058 63.0391 72.669 62.9788 72.4423C62.9185 72.2156 62.8109 72.0041 62.6632 71.8219C61.6575 70.5789 61.1485 69.0073 61.2346 67.4111C61.3208 65.8148 61.996 64.3071 63.1297 63.1795L63.263 63.0629L62.28 61.6475L61.3137 60.2987C61.1232 60.4262 60.9497 60.5773 60.7972 60.7483C59.31 62.2376 58.3443 64.1674 58.044 66.25C57.7438 68.3326 58.1251 70.4565 59.1311 72.3048C56.1247 74.0781 52.8827 75.418 49.5012 76.2846C48.8933 74.2663 47.6511 72.4975 45.9586 71.2401C44.2661 69.9827 42.2134 69.3037 40.1045 69.3037C37.9957 69.3037 35.9429 69.9827 34.2504 71.2401C32.5579 72.4975 31.3157 74.2663 30.7078 76.2846C27.3304 75.4216 24.0933 74.0815 21.0946 72.3048C22.0924 70.4424 22.4642 68.3085 22.1548 66.2186C21.8455 64.1288 20.8715 62.1938 19.3769 60.7C17.8822 59.2061 15.9463 58.2327 13.8553 57.9235C11.7643 57.6143 9.62932 57.9859 7.76595 58.9832C5.97955 55.9825 4.63297 52.7412 3.76736 49.3584C5.78669 48.7508 7.55649 47.5093 8.81452 45.8177C10.0726 44.1261 10.7519 42.0744 10.7519 39.9667C10.7519 37.859 10.0726 35.8073 8.81452 34.1157C7.55649 32.4241 5.78669 31.1825 3.76736 30.575C4.63008 27.1964 5.97687 23.9603 7.76595 20.9668C9.62932 21.9642 11.7643 22.3357 13.8553 22.0265C15.9463 21.7174 17.8822 20.7439 19.3769 19.25C20.8715 17.7562 21.8455 15.8213 22.1548 13.7314C22.4642 11.6415 22.0924 9.50765 21.0946 7.64527C24.0896 5.85713 27.3275 4.51106 30.7078 3.6488C31.3157 5.66706 32.5579 7.43592 34.2504 8.69329C35.9429 9.95066 37.9957 10.6296 40.1045 10.6296C42.2134 10.6296 44.2661 9.95066 45.9586 8.69329C47.6511 7.43592 48.8933 5.66706 49.5012 3.6488C52.8858 4.51396 56.1288 5.85981 59.1311 7.64527C58.1291 9.49176 57.75 11.6121 58.0502 13.6912C58.3503 15.7703 59.3137 17.697 60.7972 19.1851C60.9593 19.3525 61.1379 19.5031 61.3303 19.6347L63.3463 17.0037L63.213 16.8871C62.0793 15.7595 61.4041 14.2518 61.3179 12.6555C61.2318 11.0593 61.7408 9.48773 62.7465 8.24474C62.892 8.06446 62.9983 7.85584 63.0585 7.63219C63.1187 7.40854 63.1316 7.1748 63.0964 6.94588C63.06 6.71648 62.9759 6.49723 62.8497 6.30222C62.7234 6.10721 62.5578 5.94076 62.3633 5.81355C58.1443 3.02775 53.435 1.06702 48.4849 0.0353273C48.256 -0.012563 48.0196 -0.0117539 47.791 0.0377015C47.5624 0.0871568 47.3468 0.18415 47.1583 0.322373C46.9697 0.460595 46.8123 0.636951 46.6964 0.839965C46.5805 1.04298 46.5087 1.26811 46.4856 1.5007C46.3228 3.10111 45.5715 4.58418 44.3772 5.66262C43.183 6.74106 41.6307 7.3381 40.0212 7.3381C38.4117 7.3381 36.8595 6.74106 35.6652 5.66262C34.4709 4.58418 33.7196 3.10111 33.5568 1.5007C33.5337 1.26811 33.4619 1.04298 33.346 0.839965C33.2301 0.636951 33.0727 0.460595 32.8842 0.322373C32.6956 0.18415 32.48 0.0871568 32.2514 0.0377015C32.0229 -0.0117539 31.7864 -0.012563 31.5575 0.0353273C26.6388 1.06679 21.9587 3.01579 17.7624 5.78025C17.568 5.90745 17.4023 6.07391 17.276 6.26892C17.1498 6.46393 17.0658 6.68318 17.0293 6.91258C16.9941 7.14149 17.007 7.37524 17.0672 7.59889C17.1275 7.82253 17.2337 8.03116 17.3792 8.21143C18.3728 9.45975 18.8719 11.0299 18.7815 12.6224C18.691 14.215 18.0173 15.7186 16.8888 16.8465C15.7602 17.9744 14.2559 18.6478 12.6625 18.7382C11.0691 18.8286 9.49809 18.3297 8.24911 17.3367C8.06874 17.1913 7.86 17.0851 7.63624 17.0249C7.41247 16.9647 7.1786 16.9518 6.94957 16.987C6.71709 17.0212 6.49448 17.1042 6.29635 17.2304C6.09822 17.3567 5.92906 17.5234 5.79997 17.7197C3.02858 21.9248 1.07306 26.6133 0.0353463 31.5408C-0.0125695 31.7696 -0.0117603 32.0059 0.0377213 32.2343C0.0872028 32.4628 0.184248 32.6782 0.322544 32.8667C0.46084 33.0552 0.637289 33.2125 0.840411 33.3283C1.04353 33.4442 1.26878 33.516 1.50149 33.539C3.10276 33.7018 4.58661 34.4527 5.66562 35.6463C6.74463 36.8399 7.34199 38.3913 7.34199 40C7.34199 41.6087 6.74463 43.1601 5.66562 44.3537C4.58661 45.5473 3.10276 46.2982 1.50149 46.461H1.53482Z" fill="currentColor"/>
      <path d="M33.3569 33.3391C32.9151 33.3391 32.4913 33.5146 32.1788 33.8269C31.8664 34.1391 31.6909 34.5627 31.6909 35.0043V51.6563C31.6909 52.0979 31.8664 52.5215 32.1788 52.8338C32.4913 53.146 32.9151 53.3215 33.3569 53.3215H43.3534C43.7953 53.3215 44.219 53.146 44.5315 52.8338C44.8439 52.5215 45.0195 52.0979 45.0195 51.6563V35.0043C45.0195 34.5627 44.8439 34.1391 44.5315 33.8269C44.219 33.5146 43.7953 33.3391 43.3534 33.3391H33.3569ZM41.6873 49.9911H35.023V36.6695H41.6873V49.9911ZM61.6803 51.6563V28.3436C61.6803 27.9019 61.5047 27.4784 61.1923 27.1661C60.8798 26.8538 60.456 26.6784 60.0142 26.6784H50.0177C49.5758 26.6784 49.1521 26.8538 48.8396 27.1661C48.5272 27.4784 48.3516 27.9019 48.3516 28.3436V51.6563C48.3516 52.0979 48.5272 52.5215 48.8396 52.8338C49.1521 53.146 49.5758 53.3215 50.0177 53.3215H60.0142C60.456 53.3215 60.8798 53.146 61.1923 52.8338C61.5047 52.5215 61.6803 52.0979 61.6803 51.6563ZM58.3481 49.9911H51.6838V30.0087H58.3481V49.9911ZM66.6785 53.3215H76.6749C77.1168 53.3215 77.5406 53.146 77.853 52.8338C78.1655 52.5215 78.341 52.0979 78.341 51.6563V21.6828C78.341 21.2411 78.1655 20.8176 77.853 20.5053C77.5406 20.193 77.1168 20.0176 76.6749 20.0176H66.6785C66.2366 20.0176 65.8128 20.193 65.5004 20.5053C65.1879 20.8176 65.0124 21.2411 65.0124 21.6828V51.6563C65.0124 52.0979 65.1879 52.5215 65.5004 52.8338C65.8128 53.146 66.2366 53.3215 66.6785 53.3215ZM68.3446 23.348H75.0089V49.9911H68.3446V23.348Z" fill="currentColor"/>
      <path d="M78.3409 16.6873H81.6731V51.6564C81.6731 52.0981 81.8486 52.5216 82.161 52.8339C82.4735 53.1462 82.8973 53.3216 83.3391 53.3216H93.3356C93.7775 53.3216 94.2012 53.1462 94.5137 52.8339C94.8261 52.5216 95.0017 52.0981 95.0017 51.6564V16.6873H98.3338C98.6432 16.6873 98.9465 16.6012 99.2097 16.4387C99.4729 16.2761 99.6856 16.0434 99.824 15.7669C99.9624 15.4903 100.021 15.1806 99.9932 14.8726C99.9654 14.5646 99.8523 14.2704 99.6667 14.023L89.6702 0.701478C89.515 0.494667 89.3138 0.32681 89.0825 0.211199C88.8511 0.0955888 88.596 0.0354004 88.3374 0.0354004C88.0787 0.0354004 87.8236 0.0955888 87.5923 0.211199C87.3609 0.32681 87.1597 0.494667 87.0045 0.701478L77.008 14.023C76.8227 14.2716 76.7104 14.567 76.6839 14.8759C76.6574 15.1848 76.7177 15.495 76.8581 15.7715C76.9965 16.0461 77.2084 16.277 77.4701 16.4387C77.7318 16.6004 78.0332 16.6864 78.3409 16.6873ZM88.3374 4.48147L95.0017 13.357H93.3356C92.8937 13.357 92.4699 13.5324 92.1575 13.8447C91.845 14.157 91.6695 14.5805 91.6695 15.0222V49.9912H85.0052V15.0222C85.0052 14.5805 84.8297 14.157 84.5172 13.8447C84.2048 13.5324 83.781 13.357 83.3391 13.357H81.6731L88.3374 4.48147Z" fill="currentColor"/>
    </symbol>

    <symbol id="management" width="100%" height="100%" viewBox="0 0 80 80">
      <path fill-rule="evenodd" clip-rule="evenodd" d="M60.2034 75.2765C59.3749 75.2765 58.7034 74.6049 58.7034 73.7765V31.1609C58.7034 30.3325 59.3749 29.6609 60.2034 29.6609H72.8299C73.6584 29.6609 74.3299 30.3325 74.3299 31.1609V48.8531C74.3299 49.6815 73.6584 50.3531 72.8299 50.3531C72.0015 50.3531 71.3299 49.6815 71.3299 48.8531V32.6609H61.7034V72.2765H71.3299V54.3218C71.3299 53.4934 72.0015 52.8218 72.8299 52.8218C73.6584 52.8218 74.3299 53.4934 74.3299 54.3218V73.7765C74.3299 74.6049 73.6584 75.2765 72.8299 75.2765H60.2034ZM7.16968 75.2774C6.34125 75.2774 5.66968 74.6058 5.66968 73.7774V54.5211C5.66968 53.6927 6.34125 53.0211 7.16968 53.0211H19.7967C20.6251 53.0211 21.2967 53.6927 21.2967 54.5211V73.7774C21.2967 74.6058 20.6251 75.2774 19.7967 75.2774H7.16968ZM8.66968 56.0211V72.2774H18.2967V56.0211H8.66968ZM24.8475 75.2774C24.0191 75.2774 23.3475 74.6058 23.3475 73.7774V46.9449C23.3475 46.1164 24.0191 45.4449 24.8475 45.4449H37.4745C38.3029 45.4449 38.9745 46.1164 38.9745 46.9449V73.7774C38.9745 74.6058 38.3029 75.2774 37.4745 75.2774H24.8475ZM26.3475 48.4449V72.2774H35.9745V48.4449H26.3475ZM42.5255 75.2774C41.697 75.2774 41.0255 74.6058 41.0255 73.7774V37.4747C41.0255 36.6463 41.697 35.9747 42.5255 35.9747H55.1525C55.9809 35.9747 56.6525 36.6463 56.6525 37.4747V73.7774C56.6525 74.6058 55.9809 75.2774 55.1525 75.2774H42.5255ZM44.0255 38.9747V72.2774H53.6525V38.9747H44.0255Z" fill="currentColor"/>
      <path d="M19.2969 78.8281H78.8281V73.7766H1.17188V78.8281H13.8281" fill="var(--color-none)" stroke="currentColor" stroke-width="3" stroke-miterlimit="10" stroke-linecap="round" stroke-linejoin="round"/>
      <path d="M19.989 36.5281H23.7359L38.6124 20.3C38.8489 20.0419 39.1364 19.8359 39.4568 19.6949C39.7772 19.554 40.1234 19.4812 40.4734 19.4813H50.9499L64.2078 6.22344H57.6781V1.17188H70.3046C71.6999 1.17188 72.8296 2.30313 72.8296 3.69688V16.325H67.7796V9.79375L53.7812 23.7922C53.5466 24.0266 53.2682 24.2126 52.9617 24.3394C52.6553 24.4662 52.3269 24.5314 51.9953 24.5313H41.5843L26.7093 40.7594C26.4726 41.0175 26.1848 41.2235 25.8641 41.3645C25.5435 41.5054 25.1971 41.5782 24.8468 41.5781H7.01245V36.5281H14.5203" fill="var(--color-none)" stroke="currentColor" stroke-width="3" stroke-miterlimit="10" stroke-linecap="round" stroke-linejoin="round"/>
    </symbol>

    <symbol id="build" width="100%" height="100%" viewBox="0 0 80 80">
      <path d="M78.4375 76.875H76.875V37.1778C76.875 36.315 76.1753 35.6153 75.3125 35.6153H67.8323V15.4865C67.8323 14.9083 67.513 14.3772 67.002 14.1062L40.752 0.182171C40.5139 0.0558735 40.2472 -0.00668782 39.9778 0.000566131C39.7084 0.00782009 39.4454 0.0846427 39.2144 0.223569C38.9835 0.362496 38.7924 0.558802 38.6597 0.793413C38.5271 1.02802 38.4573 1.29296 38.4573 1.56248V17.5H22.6448C21.782 17.5 21.0823 18.1997 21.0823 19.0625V35.269C21.0823 36.1319 21.782 36.8315 22.6448 36.8315C23.5077 36.8315 24.2073 36.1319 24.2073 35.269V20.625H45.4573V26.8653H40.0198C39.157 26.8653 38.4573 27.565 38.4573 28.4278C38.4573 29.2906 39.157 29.9903 40.0198 29.9903H45.4573V35.6153H40.0198C39.157 35.6153 38.4573 36.315 38.4573 37.1778C38.4573 38.0406 39.157 38.7403 40.0198 38.7403H45.4573V44.3653H40.0198C39.157 44.3653 38.4573 45.065 38.4573 45.9278C38.4573 46.7906 39.157 47.4903 40.0198 47.4903H45.4573V53.1153H40.0198C39.157 53.1153 38.4573 53.815 38.4573 54.6778C38.4573 55.5406 39.157 56.2403 40.0198 56.2403H45.4573V61.8653H40.0198C39.157 61.8653 38.4573 62.565 38.4573 63.4278C38.4573 64.2906 39.157 64.9903 40.0198 64.9903H45.4573V70.6153H40.0198C39.157 70.6153 38.4573 71.315 38.4573 72.1778C38.4573 73.0406 39.157 73.7403 40.0198 73.7403H45.4573V76.875H37.5V48.125C37.5 47.2622 36.8003 46.5625 35.9375 46.5625H4.6875C3.82469 46.5625 3.125 47.2622 3.125 48.125V76.875H1.5625C0.699688 76.875 0 77.5747 0 78.4375C0 79.3003 0.699688 80 1.5625 80H78.4375C79.3003 80 80 79.3003 80 78.4375C80 77.5747 79.3005 76.875 78.4375 76.875ZM34.375 76.875H6.25V49.6875H34.375V76.875ZM53.75 37.1778V76.875H48.5823V19.0625C48.5823 18.1997 47.8827 17.5 47.0198 17.5H41.5823V4.15998L64.7073 16.4265V35.6153H55.3125C54.4497 35.6153 53.75 36.315 53.75 37.1778ZM73.75 44.3653H65.3125C64.4497 44.3653 63.75 45.065 63.75 45.9278C63.75 46.7906 64.4497 47.4903 65.3125 47.4903H73.75V53.1153H65.3125C64.4497 53.1153 63.75 53.815 63.75 54.6778C63.75 55.5406 64.4497 56.2403 65.3125 56.2403H73.75V61.8653H65.3125C64.4497 61.8653 63.75 62.565 63.75 63.4278C63.75 64.2906 64.4497 64.9903 65.3125 64.9903H73.75V70.6153H69.0105C68.1477 70.6153 67.448 71.315 67.448 72.1778C67.448 73.0406 68.1477 73.7403 69.0105 73.7403H73.75V76.875H56.875V38.7403H73.75V44.3653Z" fill="currentColor"/>
    </symbol>

    <symbol id="world" width="100%" height="100%" viewBox="0 0 80 80">
      <path d="M78.7965 9.32374C77.6398 5.68899 76.0722 3.08636 76.0057 2.97699C75.7487 2.55374 75.2194 2.33349 74.74 2.44324C74.6159 2.47161 71.6555 3.16199 68.2407 4.86624C63.6306 7.16599 60.4101 10.2362 58.9266 13.7437C57.6917 16.6645 57.5143 20.2354 58.3905 24.1801C56.5243 22.0976 54.4249 20.2759 52.1365 18.7421C51.4377 17.3627 49.59 13.9667 46.7014 10.4175C45.75 9.24899 43.9199 10.7154 44.8812 11.8955C46.8275 14.2876 48.2927 16.6401 49.2088 18.2564L38.525 16.1752L28.3744 2.34086C29.3599 2.35449 30.3491 2.44961 31.3333 2.64261C34.4534 3.25286 37.5355 4.84086 40.4953 7.36136C41.655 8.34911 43.1611 6.55136 42.0166 5.57711C38.7469 2.79299 35.3042 1.03124 31.7837 0.342237C26.4098 -0.708514 20.1422 0.670987 13.6565 4.33299C8.82263 7.06249 5.59004 10.0605 5.45506 10.1865C5.02258 10.5902 4.95378 11.3237 5.31582 11.7954C5.78995 12.7671 7.58626 16.2725 10.5763 20.0464C12.3389 22.2714 14.1979 24.1757 16.1208 25.7407C15.5716 26.1998 15.0404 26.68 14.5283 27.1801C11.78 29.8662 9.67568 33.0346 8.29433 36.4985C7.0731 39.5591 6.41632 42.8516 6.37967 46.2451C6.31912 51.7944 7.92828 57.1464 11.0343 61.7236C14.0684 66.1944 18.3101 69.627 23.3003 71.6499C24.6971 72.2149 25.5802 70.0444 24.1825 69.478C22.3881 68.7499 20.6853 67.8141 19.1091 66.6895C19.3095 65.5791 19.7741 61.583 17.1178 57.4463C16.7458 56.8676 17.8576 54.5952 18.5213 53.2377C19.2063 51.8389 19.9135 50.3926 20.2439 49.0307C20.5947 47.584 20.1999 46.3696 19.1027 45.5176C18.2975 44.8921 17.2434 44.5684 16.3144 44.2826C15.7109 44.0971 15.0267 43.8872 14.7824 43.6836C14.2791 43.2622 13.4571 41.7051 12.7964 40.4546C12.0633 39.0674 11.3657 37.7471 10.6531 36.9341C12.2565 33.1294 14.8318 29.7627 18.057 27.187C21.0031 29.1924 24.3658 30.5761 27.9399 30.8565C23.795 34.0654 22.454 38.1636 24.3707 42.1001C26.6087 46.6967 31.2154 45.9624 35.2798 45.3154C35.9828 45.2031 36.7106 45.0874 37.4074 45.0004C37.6688 44.9679 37.7476 45.0391 37.8003 45.0854C38.6901 45.8765 38.6637 49.6542 38.6447 52.4131C38.6188 56.229 38.5944 59.8335 40.017 61.6841C40.7425 62.6275 41.7645 63.1099 42.9622 63.1099C43.68 63.1099 44.4599 62.937 45.278 62.5864C48.8155 61.0728 52.4927 56.5171 51.9317 52.9126C51.4416 49.7612 51.1171 47.6792 51.8819 46.001C52.589 44.4477 54.2984 43.0097 57.6648 41.1747C58.0755 43.0252 58.2719 44.9167 58.2503 46.812C58.1785 53.4204 55.5347 59.6055 50.8068 64.227C45.5229 69.392 38.0964 71.9429 30.7503 71.1338C29.2535 70.9716 28.9949 73.2988 30.4937 73.4638C38.5348 74.3488 46.6648 71.5556 52.4468 65.9029C57.6234 60.8429 60.5172 54.0723 60.5958 46.8369C60.7005 37.2436 55.7742 28.7446 48.2751 23.8486C49.8245 22.7446 50.9788 21.79 51.619 21.2359C54.3532 23.1959 56.7784 25.6104 58.7961 28.4234C63.6399 35.1777 65.5608 43.4116 64.2062 51.6099C61.4086 68.5332 45.3544 80.0288 28.4145 77.2324C20.2092 75.8784 13.0232 71.4136 8.17961 64.6591C3.33536 57.9054 1.41445 49.6704 2.76953 41.4726C3.01285 39.9976 0.700001 39.6104 0.455681 41.0909C-1.00211 49.9067 1.06454 58.7617 6.27233 66.0249C11.481 73.2871 19.2094 78.0889 28.0324 79.5454C29.8592 79.8473 31.7077 79.9994 33.5593 80C40.4936 80 47.2391 77.8487 52.9873 73.7329C60.2574 68.5284 65.0635 60.8076 66.5202 51.9916C67.5879 45.5316 66.7616 39.0507 64.195 33.1904C65.3797 32.8412 67.3954 32.1636 69.6031 31.062C74.2124 28.7622 77.4331 25.692 78.9163 22.1845C80.4009 18.6762 80.3592 14.229 78.7965 9.32374ZM10.7216 41.5484C11.5945 43.2016 12.4198 44.7641 13.2774 45.4809C13.8848 45.9884 14.7302 46.248 15.6249 46.523C17.9174 47.227 18.1836 47.5727 17.9638 48.4785C17.694 49.5922 17.0431 50.9222 16.4142 52.208C15.2027 54.6846 14.0588 57.0225 15.1432 58.7119C16.3367 60.5639 16.9543 62.7277 16.918 64.9301C9.93201 58.6357 7.08736 48.6939 9.68969 39.6576C10.0346 40.2485 10.397 40.9351 10.7216 41.5484ZM67.4685 18.5175L64.1354 10.4462C65.7573 8.93049 67.6392 7.78999 69.242 6.98674C70.6073 6.30211 71.9062 5.79049 72.9481 5.42761L67.4685 18.5175ZM75.1104 6.33624C75.5761 7.33624 76.1162 8.62586 76.5775 10.0834C77.0832 11.683 77.5475 13.6654 77.6398 15.7334L69.8284 18.9534L75.1104 6.33624ZM61.0871 14.6562C61.433 13.8387 61.8802 13.081 62.3966 12.3812L66.1911 21.5684L62.7862 29.7041C62.3077 28.69 61.7443 27.3579 61.2663 25.8447C60.3071 22.815 59.4978 18.4135 61.0871 14.6562ZM68.6013 28.9414C67.2873 29.6006 66.0334 30.0996 65.0121 30.4595L68.5457 22.0185L77.5401 18.31C77.4096 19.3169 77.1609 20.315 76.7557 21.272C75.1671 25.0292 71.4445 27.517 68.6013 28.9414ZM26.3082 28.2744C25.8956 28.1931 25.4864 28.0954 25.0816 27.9815L38.0628 18.4736L48.7514 20.5551C44.8577 23.6206 35.382 30.0507 26.3082 28.2744ZM14.4447 20.9419C11.6685 17.9521 9.63377 14.7554 8.46534 12.7085L22.0675 15.3585L14.4447 20.9419ZM16.847 5.30561L22.5381 13.062L8.84789 10.3955C10.5715 9.03561 13.4165 6.99424 16.847 5.30561ZM25.9314 13.7231L19.0319 4.31936C21.0974 3.47124 23.3146 2.80374 25.5874 2.50686L35.1322 15.5146L25.9314 13.7231ZM25.2014 15.9687L34.9294 17.8632L22.4444 27.0074C20.0899 25.9209 17.9709 24.3589 16.117 22.6225L25.2014 15.9687ZM57.0276 38.8545C52.7992 41.1055 50.7286 42.8735 49.7464 45.0302C48.6914 47.3462 49.0779 49.832 49.613 53.2725C49.9291 55.3012 47.5161 59.0791 44.3544 60.4321C43.1845 60.9326 42.3513 60.8735 41.8768 60.2559C40.9448 59.044 40.9703 55.3759 40.9904 52.4292C41.0183 48.352 41.0426 44.831 39.3592 43.3345C38.7537 42.7964 37.9792 42.5689 37.1186 42.6744C36.3812 42.7661 35.6331 42.8852 34.9104 43.0005C30.5988 43.687 27.8856 43.9619 26.4802 41.0747C24.2031 36.3985 28.8126 32.9346 30.9003 31.6626C31.3254 31.4039 31.7197 31.0986 32.0862 30.7589C37.1318 30.1562 41.8993 27.9931 46.1479 25.2837C51.2417 28.3247 55.1521 33.1372 57.0276 38.8545Z" fill="currentColor"/>
    </symbol>

  </defs>
</svg>