<?xml version="1.0" standalone="no"?>
<!DOCTYPE svg PUBLIC "-//W3C//DTD SVG 20010904//EN"
 "http://www.w3.org/TR/2001/REC-SVG-20010904/DTD/svg10.dtd">
<svg version="1.0" xmlns="http://www.w3.org/2000/svg"
 width="260.000000pt" height="260.000000pt" viewBox="0 0 260.000000 260.000000"
 preserveAspectRatio="xMidYMid meet">
<metadata>
Created by potrace 1.14, written by Peter Selinger 2001-2017
</metadata>
<g transform="translate(0.000000,260.000000) scale(0.100000,-0.100000)"
fill="#000000" stroke="none">
<path d="M0 1295 l0 -1245 1300 0 1300 0 0 1245 0 1245 -1300 0 -1300 0 0
-1245z m1889 1009 c258 -143 457 -380 544 -649 40 -120 69 -305 49 -305 -4 0
-77 27 -162 60 -85 32 -156 58 -157 56 -5 -5 178 -81 260 -109 l69 -23 -45
-87 c-123 -239 -336 -452 -562 -562 -120 -59 -281 -111 -387 -126 -78 -12 -86
-15 -83 -33 2 -12 6 -50 9 -86 4 -36 12 -117 19 -181 l13 -116 -84 -6 c-351
-22 -698 114 -940 367 l-64 66 -104 -76 c-111 -80 -140 -88 -164 -44 -16 30
-9 776 8 772 6 -1 12 5 12 14 0 26 79 171 138 252 195 272 416 422 749 509
101 26 120 28 308 27 176 0 210 -3 280 -22 97 -27 225 -86 282 -129 62 -47 65
-41 4 9 -32 26 -50 47 -47 57 15 52 26 132 21 141 -4 6 -8 21 -9 33 -2 12 -7
47 -11 77 -5 30 -8 61 -6 69 1 7 -1 11 -6 8 -4 -3 -9 13 -10 34 0 21 1 39 5
39 3 0 35 -16 71 -36z"/>
<path d="M1000 1580 l0 -230 -65 0 -65 0 0 -85 0 -85 65 0 c63 0 65 -1 65 -25
0 -24 -2 -25 -65 -25 l-65 0 0 -80 0 -80 65 0 65 0 0 -60 0 -60 110 0 110 0 0
60 0 60 105 0 105 0 0 80 0 79 -107 3 c-103 3 -108 4 -111 26 -3 22 -2 22 110
22 218 0 331 50 396 174 22 44 26 63 26 136 -1 100 -16 141 -77 207 -87 95
-161 113 -452 113 l-215 0 0 -230z m459 42 c51 -27 73 -74 68 -145 -3 -49 -8
-63 -35 -90 l-32 -32 -125 -3 -125 -4 0 146 0 146 108 0 c85 0 114 -4 141 -18z"/>
<path d="M1750 1700 c-8 -15 -7 -26 2 -42 l12 -23 7 25 c16 56 2 83 -21 40z"/>
<path d="M2060 1505 c14 -8 30 -14 35 -14 6 0 -1 6 -15 14 -14 8 -29 14 -35
14 -5 0 1 -6 15 -14z"/>
<path d="M2120 1480 c8 -5 20 -10 25 -10 6 0 3 5 -5 10 -8 5 -19 10 -25 10 -5
0 -3 -5 5 -10z"/>
</g>
</svg>
