<?xml version="1.0" standalone="no"?>
<!DOCTYPE svg PUBLIC "-//W3C//DTD SVG 20010904//EN"
 "http://www.w3.org/TR/2001/REC-SVG-20010904/DTD/svg10.dtd">
<svg version="1.0" xmlns="http://www.w3.org/2000/svg"
 width="260.000000pt" height="260.000000pt" viewBox="0 0 260.000000 260.000000"
 preserveAspectRatio="xMidYMid meet">
<metadata>
Created by potrace 1.14, written by Peter Selinger 2001-2017
</metadata>
<g transform="translate(0.000000,260.000000) scale(0.100000,-0.100000)"
fill="#000000" stroke="none">
<path d="M1141 2389 c-195 -23 -438 -129 -579 -253 -252 -222 -366 -447 -378
-746 l-5 -125 43 80 c116 216 297 404 488 509 89 48 260 111 361 133 63 13
127 18 259 17 196 -1 273 -15 391 -75 73 -36 161 -98 157 -109 -2 -4 -40 -35
-85 -69 -65 -48 -83 -66 -83 -86 0 -32 11 -37 325 -162 359 -143 372 -148 390
-133 13 11 15 65 15 371 l0 359 -25 16 c-14 9 -31 14 -39 11 -7 -3 -55 -35
-105 -72 l-91 -67 -80 79 c-254 255 -583 365 -959 322z m121 -164 c18 -39 0
-80 -35 -80 -22 1 -27 -4 -27 -22 0 -14 -6 -23 -15 -23 -12 0 -15 15 -15 75
l0 75 40 0 c34 0 42 -4 52 -25z m78 -7 l0 -33 20 33 c11 17 27 32 36 32 14 0
15 -7 10 -37 -3 -21 -6 -46 -6 -55 0 -10 -7 -18 -16 -18 -13 0 -15 7 -10 33
l6 32 -28 -33 c-15 -18 -31 -30 -35 -26 -4 4 -7 29 -7 56 0 36 4 48 15 48 10
0 15 -10 15 -32z m-216 -9 c9 -45 7 -79 -3 -79 -6 0 -14 19 -18 43 -12 61 -39
58 -36 -5 2 -59 -21 -67 -31 -10 -10 60 -7 70 17 75 56 11 64 8 71 -24z m403
4 c7 -9 9 -21 5 -27 -3 -6 -5 -21 -4 -33 4 -29 -11 -36 -59 -28 -39 7 -40 7
-33 43 12 72 13 75 48 68 17 -3 36 -14 43 -23z m112 -14 c36 -13 36 -11 15
-72 -10 -31 -20 -44 -29 -41 -10 4 -11 12 -4 31 11 30 12 63 1 63 -5 0 -16
-16 -25 -35 -11 -23 -24 -35 -37 -35 -23 0 -27 15 -6 23 8 3 19 22 26 41 13
40 14 41 59 25z m-719 -30 c-8 -27 -6 -34 18 -55 31 -27 11 -34 -26 -8 -23 16
-26 13 -22 -20 3 -32 -23 -12 -37 29 -15 44 -8 88 8 48 10 -28 29 -30 29 -3 0
15 20 37 37 40 1 0 -2 -14 -7 -31z m850 -23 c16 -20 9 -61 -10 -59 -8 1 -25 5
-38 9 -18 5 -21 3 -16 -10 3 -9 14 -16 24 -16 11 0 22 -4 25 -10 9 -14 -48
-13 -63 2 -17 17 -15 64 4 82 19 20 58 21 74 2z m-950 -48 l18 -42 -25 -13
c-60 -31 -98 3 -48 43 26 20 27 24 12 30 -12 4 -23 0 -32 -12 -12 -15 -14 -16
-15 -3 0 22 20 39 47 39 18 0 28 -10 43 -42z m1025 12 c3 -5 1 -18 -5 -29 -16
-30 9 -39 32 -11 13 16 22 20 29 13 8 -8 3 -25 -16 -57 -15 -25 -30 -46 -34
-46 -15 0 -21 14 -10 26 7 9 5 16 -9 26 -29 20 -33 34 -21 62 13 27 24 33 34
16z m-1158 -48 c-5 -24 -1 -30 24 -41 27 -12 32 -38 5 -28 -50 19 -53 18 -48
-10 5 -26 4 -27 -12 -14 -22 18 -50 71 -42 79 4 3 12 0 18 -6 18 -18 28 -14
28 11 0 25 7 37 23 37 5 0 7 -13 4 -28z m1272 -38 c-8 -9 -5 -15 9 -23 29 -16
34 -39 12 -61 -19 -19 -21 -19 -55 -3 -42 20 -43 33 -8 83 21 29 31 36 41 28
9 -8 9 -14 1 -24z"/>
<path d="M1202 2198 c4 -43 33 -46 33 -3 0 21 -5 31 -18 33 -15 3 -18 -2 -15
-30z"/>
<path d="M1470 2200 c0 -5 9 -10 20 -10 11 0 20 5 20 10 0 6 -9 10 -20 10 -11
0 -20 -4 -20 -10z"/>
<path d="M1460 2161 c0 -5 9 -11 20 -14 13 -3 20 0 20 9 0 8 -9 14 -20 14 -11
0 -20 -4 -20 -9z"/>
<path d="M1727 2134 c-8 -8 1 -24 14 -24 5 0 9 7 9 15 0 15 -12 20 -23 9z"/>
<path d="M777 2083 c-13 -12 -7 -33 8 -33 8 0 15 9 15 20 0 20 -11 26 -23 13z"/>
<path d="M1927 1976 c-3 -8 1 -17 10 -20 20 -8 27 -1 20 19 -8 19 -23 20 -30
1z"/>
<path d="M510 1603 c-1 -61 -17 -126 -34 -139 -11 -7 -16 -27 -16 -58 0 -43 2
-47 23 -44 16 2 23 11 25 31 3 28 4 28 65 25 59 -3 62 -4 65 -30 2 -20 9 -28
23 -28 16 0 19 7 19 50 0 28 -4 50 -10 50 -6 0 -10 37 -10 90 l0 90 -75 0 -75
0 0 -37z m100 -73 l0 -70 -40 0 c-37 0 -40 2 -30 19 5 11 10 32 10 48 0 52 11
73 36 73 23 0 24 -3 24 -70z"/>
<path d="M710 1530 l0 -110 75 0 c68 0 75 2 75 20 0 17 -7 20 -50 20 -47 0
-50 2 -50 25 0 23 4 25 40 25 33 0 40 3 40 20 0 17 -7 20 -40 20 -36 0 -40 3
-40 25 0 23 3 25 50 25 43 0 50 3 50 20 0 18 -7 20 -75 20 l-75 0 0 -110z"/>
<path d="M890 1530 l0 -110 25 0 c23 0 25 4 25 45 l0 45 40 0 40 0 0 -45 c0
-41 2 -45 25 -45 l25 0 0 110 0 110 -25 0 c-23 0 -25 -4 -25 -45 l0 -45 -40 0
-40 0 0 45 c0 41 -2 45 -25 45 l-25 0 0 -110z"/>
<path d="M1110 1530 l0 -110 63 0 c53 0 67 4 85 23 46 49 10 117 -61 117 -36
0 -37 1 -37 40 0 36 -2 40 -25 40 l-25 0 0 -110z m115 -40 c0 -21 -5 -26 -32
-28 -31 -3 -33 -1 -33 28 0 29 2 31 33 28 27 -2 32 -7 32 -28z"/>
<path d="M1310 1530 l0 -110 25 0 c25 0 25 1 25 89 l0 90 47 3 c36 2 49 7 51
21 3 15 -6 17 -72 17 l-76 0 0 -110z"/>
<path d="M1480 1530 l0 -110 28 0 c24 0 33 10 67 68 l40 67 3 -67 c3 -65 4
-68 27 -68 l25 0 0 110 0 110 -27 0 c-24 0 -34 -10 -68 -71 l-40 -72 -3 72
c-3 68 -4 71 -27 71 l-25 0 0 -110z"/>
<path d="M1170 1284 l0 -55 43 3 c42 3 42 3 43 43 1 51 -10 65 -52 65 l-34 0
0 -56z m58 24 c-6 -18 -28 -21 -28 -4 0 9 7 16 16 16 9 0 14 -5 12 -12z m0
-46 c2 -7 -3 -12 -12 -12 -9 0 -16 7 -16 16 0 17 22 14 28 -4z"/>
<path d="M2392 1295 c-35 -75 -143 -232 -212 -308 -203 -221 -497 -362 -804
-385 l-89 -7 -14 -55 c-17 -64 -20 -110 -9 -128 13 -21 -14 -42 -55 -42 -22 0
-39 -4 -39 -10 0 -5 11 -10 23 -10 34 0 36 -6 21 -63 -8 -29 -14 -55 -14 -58
0 -27 266 -12 394 21 98 26 271 102 349 154 141 94 304 278 371 421 66 138
113 353 104 475 l-3 45 -23 -50z m-432 -644 c0 -6 19 -9 43 -8 38 2 42 0 45
-24 2 -21 -4 -31 -32 -47 l-36 -21 -25 48 c-13 27 -21 51 -18 55 9 9 23 7 23
-3z m-35 -20 c3 -5 -4 -12 -15 -16 -20 -6 -20 -6 0 -45 24 -46 24 -50 7 -50
-7 0 -21 16 -30 36 -14 28 -21 34 -37 29 -34 -11 -22 14 18 34 43 23 49 24 57
12z m-105 -87 c24 -55 25 -64 5 -64 -8 0 -18 12 -21 27 -7 27 -7 27 -18 -11
-6 -22 -16 -41 -22 -43 -12 -4 -56 92 -46 101 13 13 29 4 39 -21 l11 -28 1 37
c1 30 7 41 29 47 1 1 12 -20 22 -45z m-126 -30 c-5 -18 0 -34 15 -55 19 -25
20 -29 5 -29 -10 0 -26 7 -36 17 -17 15 -18 15 -18 -10 0 -17 -5 -27 -15 -27
-8 0 -15 7 -15 15 0 24 -17 17 -24 -10 -4 -14 -14 -25 -22 -25 -13 0 -15 7
-10 34 6 29 3 36 -21 51 -25 17 -26 19 -8 25 14 5 28 1 44 -14 l24 -21 -7 28
c-5 22 -3 27 13 27 12 0 21 -8 24 -22 4 -24 7 -19 22 27 2 8 11 15 20 15 12 0
14 -6 9 -26z m-186 -30 c50 -35 16 -118 -44 -106 -50 9 -58 93 -11 112 30 12
30 12 55 -6z m-108 -58 c0 -37 -4 -56 -14 -59 -20 -8 -26 2 -26 45 0 21 -4 38
-10 38 -5 0 -10 -12 -10 -26 0 -34 -17 -64 -37 -64 -11 0 -14 6 -9 23 3 12 6
39 6 60 l0 37 50 0 50 0 0 -54z"/>
<path d="M1986 622 c-2 -4 -1 -14 4 -22 7 -11 11 -11 24 -1 9 7 13 17 10 22
-7 11 -31 12 -38 1z"/>
<path d="M1464 457 c-9 -24 0 -52 16 -52 21 0 24 39 6 55 -13 10 -17 9 -22 -3z"/>
<path d="M920 1045 l0 -115 44 0 c58 0 91 13 112 45 31 47 -14 105 -81 105
-18 0 -25 5 -25 20 0 17 7 20 45 20 38 0 45 3 45 20 0 18 -7 20 -70 20 l-70 0
0 -115z m109 -19 c18 -22 -3 -56 -34 -56 -22 0 -25 4 -25 35 0 30 3 35 24 35
13 0 29 -6 35 -14z"/>
<path d="M1110 1045 l0 -115 25 0 c19 0 32 14 67 72 l43 73 3 -73 c3 -69 4
-72 27 -72 l25 0 0 115 0 115 -25 0 c-19 0 -32 -14 -67 -72 l-43 -73 -3 73
c-3 69 -4 72 -27 72 l-25 0 0 -115z"/>
<path d="M1356 1139 c-14 -11 -26 -25 -26 -30 0 -12 47 -12 55 1 9 14 53 12
58 -2 7 -23 -4 -38 -29 -38 -38 0 -32 -36 7 -44 25 -5 30 -10 27 -28 -3 -25
-43 -37 -61 -19 -12 12 -57 15 -57 4 1 -26 45 -53 88 -53 37 0 82 35 82 62 0
12 -7 29 -16 39 -14 16 -14 20 1 42 41 64 -64 118 -129 66z"/>
<path d="M1532 1048 c3 -109 4 -113 26 -116 20 -3 22 0 22 47 l0 51 45 0 45 0
0 -50 c0 -47 2 -50 25 -50 l25 0 0 115 0 115 -25 0 c-23 0 -25 -4 -25 -45 l0
-45 -45 0 -45 0 0 45 c0 41 -2 45 -25 45 l-26 0 3 -112z"/>
<path d="M1760 1045 l0 -115 75 0 c68 0 75 2 75 20 0 17 -7 20 -50 20 -49 0
-50 1 -50 30 0 28 2 30 40 30 33 0 40 3 40 20 0 17 -7 20 -40 20 -36 0 -40 3
-40 25 0 23 3 25 50 25 43 0 50 3 50 20 0 18 -7 20 -75 20 l-75 0 0 -115z"/>
<path d="M1959 1131 c-25 -26 -29 -37 -29 -86 0 -49 4 -60 29 -86 48 -48 138
-30 154 31 4 16 0 20 -19 20 -13 0 -28 -9 -34 -20 -14 -26 -56 -26 -70 -1 -5
11 -10 36 -10 56 0 20 5 45 10 56 14 25 56 25 70 -1 14 -26 50 -27 50 -1 0 28
-47 61 -87 61 -25 0 -43 -8 -64 -29z"/>
<path d="M656 653 c-6 -14 -5 -15 5 -6 7 7 10 15 7 18 -3 3 -9 -2 -12 -12z"/>
<path d="M680 610 c-8 -5 -12 -11 -10 -14 3 -2 14 2 24 10 22 15 10 19 -14 4z"/>
<path d="M617 603 c-4 -3 -7 -11 -7 -17 0 -6 5 -5 12 2 6 6 9 14 7 17 -3 3 -9
2 -12 -2z"/>
<path d="M761 584 c0 -11 3 -14 6 -6 3 7 2 16 -1 19 -3 4 -6 -2 -5 -13z"/>
<path d="M768 514 c-31 -30 -53 -54 -50 -54 11 1 116 99 111 104 -2 3 -30 -20
-61 -50z"/>
<path d="M882 505 c-7 -15 -11 -30 -8 -32 7 -7 28 36 24 49 -2 6 -9 -2 -16
-17z"/>
<path d="M950 528 c0 -3 -7 -22 -15 -42 -8 -20 -13 -36 -10 -36 9 0 37 71 31
78 -3 3 -6 3 -6 0z"/>
<path d="M1060 474 c-1 -10 -7 -36 -14 -56 -11 -31 -11 -38 -1 -38 14 0 32 96
21 107 -3 4 -6 -2 -6 -13z"/>
<path d="M1200 450 c0 -5 7 -10 16 -10 8 0 12 5 9 10 -3 6 -10 10 -16 10 -5 0
-9 -4 -9 -10z"/>
<path d="M830 435 c0 -8 2 -15 4 -15 2 0 6 7 10 15 3 8 1 15 -4 15 -6 0 -10
-7 -10 -15z"/>
<path d="M990 440 c0 -5 7 -7 15 -4 8 4 15 8 15 10 0 2 -7 4 -15 4 -8 0 -15
-4 -15 -10z"/>
<path d="M921 408 c-10 -30 -9 -31 4 -14 8 11 15 26 15 33 0 22 -8 14 -19 -19z"/>
<path d="M1200 400 c0 -5 7 -7 15 -4 8 4 15 8 15 10 0 2 -7 4 -15 4 -8 0 -15
-4 -15 -10z"/>
</g>
</svg>
